<?xml version="1.0" encoding="utf-8"?>
<!-- Generator: Adobe Illustrator 22.0.1, SVG Export Plug-In . SVG Version: 6.00 Build 0)  -->
<svg version="1.1" id="Camada_1" xmlns="http://www.w3.org/2000/svg" xmlns:xlink="http://www.w3.org/1999/xlink" x="0px" y="0px"
	 viewBox="0 0 124 124" style="enable-background:new 0 0 124 124;" xml:space="preserve">
<style type="text/css">
	.st0{fill:#028B9D;}
	.st1{fill:#EF7D25;}
	.st2{fill-rule:evenodd;clip-rule:evenodd;fill:none;stroke:#00BA23;stroke-width:3;stroke-miterlimit:22.926;}
	.st3{fill-rule:evenodd;clip-rule:evenodd;fill:none;stroke:#E6342A;stroke-width:3;stroke-miterlimit:22.926;}
	.st4{fill:#FFFFFF;}
	.st5{fill:#3F5EA5;}
	.st6{fill:#9E6CAB;}
	.st7{fill:#65B448;}
	.st8{fill:#A1C640;}
	.st9{fill:#E8357A;}
	.st10{fill:#0281B1;}
	.st11{fill:#FFCC0C;}
	.st12{fill:#24B4B7;}
	.st13{fill:#F9C314;}
	.st14{fill:#4DB58E;}
	.st15{fill:#00AE9F;}
</style>
<g>
	<path class="st0" d="M71.9,83.4l9,16.8l-6.7,14.9l-3.5,8.5c1.2-0.2,2.3-0.4,3.5-0.6l2.8-6.7l7.3-16.2l-9.7-18.1
		C73.7,82.4,72.8,82.9,71.9,83.4z"/>
	<path class="st1" d="M38.2,62.1c0-0.9,0.1-1.8,0.2-2.7l-22.9-1.1L0.7,50.8c-0.2,1-0.4,2.1-0.5,3.1l14.5,7.4l23.5,1.2
		C38.2,62.3,38.2,62.2,38.2,62.1z"/>
	<path class="st2" d="M61.6,62.1"/>
	<path class="st3" d="M61.6,62.1"/>
	<g>
		<path class="st1" d="M105,74.5L84.5,68c-0.3,1-0.6,1.9-0.9,2.8l20.1,6.3C103.6,76.2,104.1,75.1,105,74.5z"/>
		<path class="st1" d="M110.2,77.9c-0.2,0.8-0.6,1.4-1.3,1.9c-0.2,0.2-0.4,0.3-0.7,0.4l8.9,9.9c0.5-1,1-1.9,1.4-2.9L110.2,77.9z"/>
	</g>
	<path class="st4" d="M107,81.3c-1.3,0-2.6-0.6-3.4-1.8h0c-0.6-0.9-0.9-2-0.7-3.1c0.2-1.1,0.8-2.1,1.7-2.7c1.9-1.3,4.5-0.9,5.8,1
		c0.6,0.9,0.9,2,0.7,3.1c-0.2,1.1-0.8,2.1-1.7,2.7C108.7,81,107.8,81.3,107,81.3z M105,78.5c0.8,1.1,2.3,1.4,3.5,0.6
		c0.5-0.4,0.9-1,1-1.6c0.1-0.6,0-1.3-0.4-1.8c-0.8-1.1-2.3-1.4-3.5-0.6c-0.5,0.4-0.9,0.9-1,1.6C104.4,77.3,104.6,78,105,78.5z"/>
	<g>
		<polygon class="st5" points="25.4,75.6 23.4,76.8 25,79.4 26.4,78.5 28.9,78.2 28.6,75.2 		"/>
		<rect x="31.1" y="74.7" transform="matrix(0.9946 -0.1035 0.1035 0.9946 -7.7109 3.8754)" class="st5" width="4.8" height="3"/>
		<path class="st5" d="M78.5,45.7c0.7,0.7,1.4,1.5,2,2.3l2.2-1.9l-2-2.3L78.5,45.7z"/>
		<path class="st5" d="M41.4,73.9l-3.3,0.3l0.3,3l4.8-0.5l0-0.1C42.5,75.8,41.9,74.9,41.4,73.9z"/>
		<rect x="11.6" y="82.9" transform="matrix(0.8518 -0.5239 0.5239 0.8518 -42.1202 19.8417)" class="st5" width="4.8" height="3"/>
		<rect x="17.7" y="79.1" transform="matrix(0.8518 -0.5239 0.5239 0.8518 -39.2355 22.4954)" class="st5" width="4.8" height="3"/>
		<path class="st5" d="M5.3,88c0.4,0.8,0.8,1.6,1.2,2.4l0.2,0.3l4.1-2.5l-1.6-2.6L5.3,88z"/>
		<rect x="108" y="32.9" transform="matrix(0.3252 -0.9456 0.9456 0.3252 40.539 127.3735)" class="st5" width="3" height="4.8"/>
		
			<rect x="101.2" y="30.5" transform="matrix(0.3253 -0.9456 0.9456 0.3253 38.1511 119.3494)" class="st5" width="3" height="4.8"/>
		<path class="st5" d="M117.1,34.2l-3.6,1.2l1,2.8l3.9-1.4C118,36,117.6,35.1,117.1,34.2z"/>
		<rect x="88.4" y="35.6" transform="matrix(0.7585 -0.6517 0.6517 0.7585 -2.2523 68.1333)" class="st5" width="4.8" height="3"/>
		<path class="st5" d="M95.6,34.4c-0.9-0.3-1.5-1-1.8-1.8l-0.3,0.3l2,2.3l0.7-0.6C95.9,34.5,95.8,34.4,95.6,34.4z"/>
		<rect x="82.9" y="40.3" transform="matrix(0.7585 -0.6517 0.6517 0.7585 -6.6293 65.7088)" class="st5" width="4.8" height="3"/>
	</g>
	<path class="st4" d="M96.8,35.5c-0.5,0-1.1-0.1-1.6-0.3c-1-0.4-1.8-1.2-2.3-2.2c-0.4-1-0.4-2.2,0-3.2c0.9-2.1,3.3-3.2,5.5-2.3
		c1,0.4,1.8,1.2,2.3,2.2c0.4,1,0.4,2.2,0,3.2l0,0C100.1,34.5,98.5,35.5,96.8,35.5z M96.9,28.8c-1,0-1.9,0.6-2.3,1.5
		c-0.2,0.6-0.2,1.3,0,1.9c0.3,0.6,0.7,1.1,1.3,1.3c1.3,0.5,2.7-0.1,3.2-1.4l0,0c0.2-0.6,0.2-1.3,0-1.9s-0.7-1.1-1.4-1.3
		C97.5,28.9,97.2,28.8,96.9,28.8z"/>
	<g>
		<path class="st6" d="M21.3,92.5l-8.4,7.9c0.6,0.8,1.3,1.6,1.9,2.3l8.5-8C22.3,94.3,21.6,93.5,21.3,92.5z"/>
		<path class="st6" d="M46.9,80.4l-6.3,9l-13.4,0.3c0.6,0.8,0.9,1.9,0.5,3l14.4-0.3l7.2-10.2C48.5,81.6,47.6,81,46.9,80.4z"/>
	</g>
	<g>
		<path class="st7" d="M35.8,20.8l-11.4-8.2c-0.8,0.6-1.6,1.3-2.4,1.9l12.2,8.8C34.2,22.3,34.8,21.4,35.8,20.8z"/>
		<path class="st7" d="M40.2,25.5c-0.4,0.7-1.1,1.2-2,1.4C38,27,37.8,27,37.6,27.1l10,16.3c0.8-0.6,1.6-1.1,2.5-1.6L40.2,25.5z"/>
	</g>
	<path class="st4" d="M37.4,27.9c-1.9,0-3.6-1.2-4.1-3.1c-0.6-2.2,0.8-4.5,3-5.1h0c2.2-0.6,4.5,0.8,5.1,3c0.3,1.1,0.1,2.2-0.4,3.2
		c-0.6,1-1.5,1.7-2.6,1.9C38.1,27.9,37.7,27.9,37.4,27.9z M36.7,21.4c-1.3,0.3-2.1,1.7-1.8,3c0.3,1.3,1.7,2.1,3,1.8
		c0.6-0.2,1.2-0.6,1.5-1.1c0.3-0.6,0.4-1.2,0.3-1.9C39.4,21.8,38.1,21,36.7,21.4z"/>
	<g>
		<rect x="54.4" y="98.6" transform="matrix(0.125 -0.9922 0.9922 0.125 -49.6572 143.9943)" class="st8" width="4.8" height="3"/>
		<rect x="55.3" y="91.5" transform="matrix(0.125 -0.9922 0.9922 0.125 -41.782 138.6388)" class="st8" width="4.8" height="3"/>
		<path class="st8" d="M52.3,123.5c1,0.1,2,0.3,3,0.4l0.6-4.5l-3-0.4L52.3,123.5z"/>
		<path class="st8" d="M57.1,109.1c-1,0.3-2.1,0-2.9-0.6l-0.1,1l3,0.4L57.1,109.1C57.2,109.1,57.1,109.1,57.1,109.1z"/>
		<path class="st8" d="M57.2,85.2l-0.4,2.8l3,0.4l0.4-2.8C59.1,85.5,58.2,85.4,57.2,85.2z"/>
		<rect x="52.6" y="112.9" transform="matrix(0.125 -0.9922 0.9922 0.125 -65.4078 154.7053)" class="st8" width="4.8" height="3"/>
	</g>
	<path class="st4" d="M56.3,110.1c-1.9,0-3.6-1.2-4.1-3.1c-0.3-1.1-0.1-2.2,0.4-3.2s1.5-1.7,2.6-1.9l0,0c2.2-0.6,4.5,0.8,5.1,3
		c0.3,1.1,0.1,2.2-0.4,3.2s-1.5,1.7-2.6,1.9C57,110,56.6,110.1,56.3,110.1z M55.7,103.5c-0.6,0.2-1.2,0.6-1.5,1.1
		c-0.3,0.6-0.4,1.2-0.3,1.9c0.3,1.3,1.7,2.1,3,1.8c0.6-0.2,1.2-0.6,1.5-1.1s0.4-1.2,0.3-1.9C58.3,104,57,103.2,55.7,103.5
		L55.7,103.5z"/>
	<g>
		<path class="st0" d="M76.4,18.5c0.3,0.1,0.6,0.2,0.8,0.3l0.5-16.7c-1-0.3-2-0.5-3-0.7l-0.6,17.2C74.9,18.4,75.7,18.3,76.4,18.5z"
			/>
		<path class="st0" d="M74.8,25c-0.6-0.2-1.2-0.5-1.6-0.9l-6.9,15.1c1,0.2,2,0.5,2.9,0.8L76.1,25C75.7,25.1,75.3,25.1,74.8,25z"/>
	</g>
	<path class="st4" d="M75.6,25.9c-0.3,0-0.7,0-1-0.1c-1.1-0.3-2-0.9-2.6-1.9c-0.6-1-0.8-2.1-0.5-3.2c0.5-2.2,2.8-3.6,5.1-3.1h0
		c2.2,0.5,3.6,2.8,3.1,5C79.2,24.6,77.5,25.9,75.6,25.9z M75.6,19.3c-1.1,0-2.1,0.8-2.4,1.9c-0.2,0.6-0.1,1.3,0.3,1.9
		c0.3,0.6,0.9,1,1.5,1.1c1.3,0.3,2.7-0.5,3-1.8c0.3-1.3-0.5-2.7-1.8-3l0,0C76,19.3,75.8,19.3,75.6,19.3z"/>
	<g>
		<rect x="52.2" y="29.4" transform="matrix(0.9933 -0.1156 0.1156 0.9933 -3.3153 6.416)" class="st9" width="3" height="4.8"/>
		<path class="st9" d="M53.1,40.2c0.9-0.4,1.9-0.7,2.9-0.9l-0.3-2.9l-3,0.3L53.1,40.2z"/>
		<rect x="51.3" y="22.2" transform="matrix(0.9933 -0.1156 0.1156 0.9933 -2.4944 6.2718)" class="st9" width="3" height="4.8"/>
		<rect x="47.5" y="9.6" transform="matrix(0.3577 -0.9338 0.9338 0.3577 20.3067 53.5075)" class="st9" width="3" height="4.8"/>
		<path class="st9" d="M36.3,5.5C35.2,6,34,6.6,32.9,7.2l-0.1,0.2l4.5,1.7l1.1-2.8L36.3,5.5z"/>
		<rect x="50.5" y="15.1" transform="matrix(0.9933 -0.1156 0.1156 0.9933 -1.6734 6.1277)" class="st9" width="3" height="4.8"/>
		<rect x="40.8" y="7" transform="matrix(0.3577 -0.9338 0.9338 0.3577 18.3919 45.5743)" class="st9" width="3" height="4.8"/>
	</g>
	<path class="st10" d="M44.6,46L12,25c-0.6,0.8-1.2,1.6-1.7,2.4l32.5,20.9C43.3,47.5,44,46.7,44.6,46z"/>
	<g>
		<path class="st11" d="M40.1,52.8L4.3,38.6c-0.4,0.9-0.7,1.9-1.1,2.8l35.9,14.3C39.4,54.7,39.7,53.7,40.1,52.8z"/>
		<path class="st11" d="M51.4,83.3l-14,36c0.9,0.4,1.8,0.8,2.8,1.1l14-36C53.2,84.1,52.3,83.7,51.4,83.3z"/>
	</g>
	<path class="st12" d="M91.7,89.9L78.6,78.5c-0.7,0.7-1.5,1.4-2.2,2L90,92.4l0.2,0.2l20.9,7.2c0.6-0.8,1.2-1.7,1.8-2.5L91.7,89.9z"
		/>
	<path class="st13" d="M97.5,84L82.1,73.8c-0.5,0.9-1,1.7-1.7,2.5l14.4,9.5l6.2,24.3c0.9-0.7,1.7-1.4,2.5-2.2L97.5,84z"/>
	<path class="st11" d="M123.6,57.7l-16.7,8l-21.7-2.5c0,1-0.2,2-0.3,3l22.5,2.6l16.3-7.8C123.7,59.9,123.7,58.8,123.6,57.7z"/>
	<g>
		<path class="st0" d="M38.4,65.3L0.6,73c0.2,1,0.4,2,0.6,2.9L39,68.2C38.7,67.3,38.5,66.3,38.4,65.3z"/>
		<path class="st0" d="M107.8,55.4l-23,2.6c0.2,1,0.3,2,0.3,3l21.8-2.4l16.3,11.3c0.1-1.1,0.3-2.3,0.3-3.4L107.8,55.4z"/>
	</g>
	<path class="st1" d="M84,54.7l37.3-9.9c-0.3-1-0.6-1.9-0.9-2.9l-37.5,10C83.3,52.8,83.7,53.7,84,54.7z"/>
	<g>
		<path class="st14" d="M75.6,43.2l20.7-32.6C95.4,10,94.6,9.5,93.7,9L73.1,41.5C73.9,42,74.8,42.6,75.6,43.2z"/>
		<path class="st14" d="M67.3,85c-1,0.2-2,0.4-3,0.5l2.8,19.4l19.3,14.2c1-0.5,2.1-0.9,3.1-1.4l-19.6-14.4L67.3,85z"/>
	</g>
	<g>
		<path class="st15" d="M46.9,80.4l-17.1,24.3l-1.8,9.5c0.9,0.6,1.8,1.1,2.7,1.7l1.9-10l16.7-23.8C48.5,81.6,47.7,81,46.9,80.4z"/>
		<path class="st15" d="M61.7,38.6c0.6,0,1.2,0,1.7,0.1l0.3-38.6c-0.7,0-1.3-0.1-2-0.1c-0.3,0-0.7,0-1,0l-0.3,38.6
			C60.9,38.6,61.3,38.6,61.7,38.6z"/>
	</g>
	<path class="st4" d="M24.5,95.8c-1.9,0-3.6-1.2-4.1-3.1c-0.3-1.1-0.1-2.2,0.4-3.2s1.5-1.7,2.6-1.9l0,0c2.2-0.6,4.5,0.8,5.1,3
		c0.3,1.1,0.1,2.2-0.4,3.2s-1.5,1.7-2.6,1.9C25.2,95.8,24.9,95.8,24.5,95.8z M23.9,89.3c-0.6,0.2-1.2,0.6-1.5,1.1
		C22,91,22,91.6,22.1,92.3c0.3,1.3,1.7,2.1,3,1.8c0.6-0.2,1.2-0.6,1.5-1.1s0.4-1.2,0.3-1.9C26.6,89.7,25.2,88.9,23.9,89.3L23.9,89.3
		z"/>
</g>
</svg>
