<?xml version="1.0" encoding="utf-8"?>
<!-- Generator: Adobe Illustrator 22.0.1, SVG Export Plug-In . SVG Version: 6.00 Build 0)  -->
<svg version="1.1" id="Camada_1" xmlns="http://www.w3.org/2000/svg" xmlns:xlink="http://www.w3.org/1999/xlink" x="0px" y="0px"
	 viewBox="0 0 466.9 145.7" style="enable-background:new 0 0 466.9 145.7;" xml:space="preserve">
<style type="text/css">
	.st0{fill-rule:evenodd;clip-rule:evenodd;fill:#FFFFFF;}
	.st1{fill:#EE7126;}
	.st2{fill:#76B949;}
	.st3{fill:#00AE9F;}
	.st4{fill:#0281B1;}
	.st5{fill:#028B9D;}
	.st6{fill:#9E6CAB;}
	.st7{fill:#FFCC0C;}
	.st8{fill:#F9C314;}
	.st9{fill:#24B4B7;}
	.st10{fill:#FFFFFF;}
	.st11{fill:#E8357A;}
	.st12{fill:#65B448;}
	.st13{fill:#EF7D25;}
	.st14{fill:#4DB58E;}
	.st15{fill:#DF5025;}
	.st16{fill:#0D2E44;}
	.st17{fill:#F7CE11;}
	.st18{fill:#C8D32D;}
	.st19{fill:#0681B1;}
	.st20{fill:#A1C640;}
	.st21{fill:#057FD9;}
	.st22{fill:#F57D02;}
	.st23{fill:#E6342A;}
	.st24{fill:#00BA23;}
</style>
<g>
	<g>
		<g>
			<g>
				<path class="st0" d="M79.1,59.4c0-1.8-1.5-3.3-3.3-3.3c-1.8,0-3.3,1.5-3.3,3.3c0,1.8,1.5,3.3,3.3,3.3
					C77.6,62.7,79.1,61.2,79.1,59.4z"/>
			</g>
			<g>
				<path class="st0" d="M65.5,73.6c2.6-4.2,2.6-4.9,5.8-5.3l-1.2,5.6c-0.3,1.2,0.2,2.3,0.8,3.2l5,5.5l2.6,7.2l3.2-0.8l-2.8-7.4
					l-4-6.2l1.2-5.4c1.3,3.4,2.7,4.8,7.5,5.9l1.1-3.2c-2-0.5-3.6-1.3-4.4-2.1c-1.4-1.6-1.3-3.3-2.4-4.6c-1.8-2-4.7-3.1-11.2,0.4
					c-1.8,1.4-2.6,3.3-3.9,5.3L65.5,73.6z"/>
			</g>
			<g>
				<polygon class="st0" points="66.4,89.7 70.6,85.1 71.9,81.1 69.4,78.2 67.9,83.1 63.6,88.5 				"/>
			</g>
		</g>
		<g>
			<polygon class="st1" points="101.7,65.8 100.6,62.4 109.9,59.6 120.3,61.3 141.4,52.7 141.8,52.6 142.6,56.1 142.4,56.2 
				120.7,65 110.2,63.3 			"/>
		</g>
		<g>
			<polygon class="st2" points="140.2,97.6 100.8,82.7 101.9,79.3 102.3,79.4 141.5,94.2 			"/>
		</g>
		<g>
			<polygon class="st1" points="70.7,143.8 67.1,143.4 67.3,141.8 70.8,122.2 72.8,117.1 73.2,101.9 73.2,101.7 76.8,101.6 
				76.8,101.9 76.4,117.9 74.2,123.3 70.8,142.3 			"/>
		</g>
		<g>
			<polygon class="st3" points="30,129 27.4,126.5 28.1,125.8 44.9,114.4 54.5,95.3 54.8,94.8 57.8,96.9 57.5,97.3 47.7,116.9 
				30.2,128.7 			"/>
		</g>
		<g>
			<path class="st4" d="M13.2,110.2l-0.1-0.3l-1.6-2.8l0.9-0.4l1,3l0.2,0.3l-0.1,0l0,0L13.2,110.2L13.2,110.2L13.2,110.2z
				 M16.2,109.2l-1.2-3.4l5.5-1.9l1.2,3.4L16.2,109.2z M24.5,106.4l-1.2-3.4l3.3-1.1l0.4-0.8l3.2,1.6l-1.1,2.1L24.5,106.4z
				 M31.6,100.1l-3.2-1.6l2.7-5.2l3.2,1.6L31.6,100.1z M36,94.8l-1.2-3.4l5.5-2l1.2,3.4L36,94.8z M44.3,91.8l-1.2-3.4l4.2-1.5
				l0.8-0.5l1.9,3.1l-1.3,0.8L44.3,91.8z"/>
		</g>
		<g>
			<polygon class="st5" points="3.3,82.4 2.8,78.9 3.3,78.8 44.2,75.6 44.9,75.5 45.4,79.1 44.6,79.2 			"/>
		</g>
		<g>
			<polygon class="st6" points="21.2,120.5 18.7,117.9 19.2,117.4 51.4,91.3 53.9,93.9 53.5,94.3 21.5,120.2 			"/>
		</g>
		<g>
			<polygon class="st7" points="42.7,136.8 39.5,135 60.4,98.5 63.6,100 63.4,100.4 			"/>
		</g>
		<g>
			<path class="st8" d="M100.9,100.6c0.1-0.1,0.2-0.2,0.3-0.3c0.9-0.9,2.4-0.9,3.3-0.1l-0.1-5.4l-6.9-5.4l-2.2,2.8l5.6,4.4
				L100.9,100.6z"/>
			<path class="st8" d="M104.7,108.6l-0.1-4.5c-1,0.9-2.6,0.8-3.6-0.2c0,0,0,0,0-0.1l0.2,6.3l16.7,17.8l0.3,0.4l2.7-2.4L104.7,108.6
				z"/>
		</g>
		<g>
			<path class="st9" d="M112.2,101.5l-7.3-0.9c0.8,1,0.7,2.5-0.3,3.4c-0.1,0-0.1,0.1-0.2,0.1l6.2,0.8l16.8,14.1l2.3-2.8L112.2,101.5
				z"/>
			<path class="st9" d="M101.1,100.3c0.3-0.3,0.7-0.5,1.2-0.6l-7.2-6.6l-0.4-0.4l-2.6,2.5l8.3,7.7
				C100.2,101.9,100.4,100.9,101.1,100.3z"/>
		</g>
		<path class="st10" d="M102.9,105.6c-0.9,0-1.9-0.4-2.6-1.1l0,0c-0.6-0.7-1-1.6-0.9-2.5c0-0.9,0.4-1.8,1.1-2.4
			c1.4-1.3,3.6-1.2,4.9,0.2c0.6,0.7,1,1.6,0.9,2.5c0,0.9-0.4,1.8-1.1,2.4C104.6,105.3,103.7,105.6,102.9,105.6z M102.9,100.5
			c-0.4,0-0.8,0.1-1.1,0.4c-0.3,0.3-0.5,0.7-0.5,1.2c0,0.4,0.1,0.9,0.4,1.2v0c0.6,0.7,1.7,0.7,2.4,0.1c0.3-0.3,0.5-0.7,0.5-1.2
			c0-0.4-0.1-0.9-0.4-1.2C103.8,100.7,103.3,100.5,102.9,100.5z"/>
		<g>
			
				<rect x="58.4" y="11.5" transform="matrix(0.5498 -0.8353 0.8353 0.5498 16.4714 57.2221)" class="st11" width="5.8" height="3.6"/>
			<path class="st11" d="M58.2,21.4c-1,0.4-2.1,0.2-2.9-0.7c-0.2-0.2-0.4-0.5-0.5-0.8l-1.4,2.2l3,2L58.2,21.4z"/>
			<polygon class="st11" points="64.4,8.3 66,9.4 66.5,8.8 66,2.7 66,2.4 62.4,2.9 62.8,8.5 			"/>
			
				<rect x="53.4" y="25.1" transform="matrix(0.8548 -0.519 0.519 0.8548 -6.5308 32.7303)" class="st11" width="3.6" height="5.8"/>
			<polygon class="st11" points="67.1,44.1 64.3,39.6 61.3,41.5 63.8,45.6 63.8,45.8 63.9,45.7 63.9,45.8 67.3,44.8 			"/>
			<rect x="58" y="32.6" transform="matrix(0.8548 -0.519 0.519 0.8548 -9.7568 36.1794)" class="st11" width="3.6" height="5.8"/>
		</g>
		<g>
			<path class="st9" d="M55.5,17.1c0.7-0.6,1.6-0.8,2.4-0.6l-4-10.9l-0.2-0.7l-3.5,1l4.5,12.4C54.9,17.8,55.1,17.4,55.5,17.1z"/>
			<path class="st9" d="M71.2,42.5l-2.7-13.3l-7.7-5l-1.4-3.7c-0.1,0.2-0.2,0.3-0.4,0.5c-0.9,0.8-2.2,0.9-3.2,0.2l2,5.5l7.5,4.8
				L67.6,43l0.2,1.6l3.6-0.5L71.2,42.5z"/>
		</g>
		<path class="st10" d="M57.2,22.5c-1,0-1.9-0.4-2.6-1.2c-0.6-0.7-0.9-1.6-0.9-2.5c0.1-0.9,0.5-1.8,1.2-2.4c1.4-1.3,3.6-1.1,4.9,0.3
			l0,0c0.6,0.7,0.9,1.6,0.9,2.5c-0.1,0.9-0.5,1.8-1.2,2.4C58.9,22.2,58.1,22.5,57.2,22.5z M57.2,17.3c-0.4,0-0.8,0.1-1.1,0.4
			c-0.3,0.3-0.5,0.7-0.6,1.2c0,0.4,0.1,0.9,0.4,1.2c0.6,0.7,1.7,0.7,2.4,0.1c0.3-0.3,0.5-0.7,0.6-1.2c0-0.4-0.1-0.9-0.4-1.2l0,0
			C58.2,17.5,57.7,17.3,57.2,17.3z"/>
		<g>
			<path class="st5" d="M131.8,82.3l-9.5-8.8c0.3,1,0,2.2-1,2.9c-0.3,0.2-0.5,0.3-0.8,0.4l9.8,9.1l12.7,0.8l0.4,0.1l0.4-3.6
				L131.8,82.3z"/>
			<path class="st5" d="M118.4,72.1c0.6-0.4,1.4-0.6,2.1-0.4l-5.6-5.2L102.1,68l0.4,3.6l11.1-1.3l3.7,3.5
				C117.5,73.1,117.8,72.5,118.4,72.1z"/>
		</g>
		<g>
			<path class="st7" d="M144.2,72.4l-22.3,0.3c0,0,0,0,0.1,0.1c0.8,1.1,0.5,2.7-0.6,3.5l22.8-0.3l0.4,0l0.1-3.6L144.2,72.4z"/>
			<path class="st7" d="M117.8,75.7c-0.7-0.9-0.6-2.1,0-3L103,72.9l-0.4,0l-0.1,3.6l0.5,0l15.5-0.2C118.2,76.2,118,76,117.8,75.7z"
				/>
		</g>
		<path class="st10" d="M119.9,77.7c-1.1,0-2.2-0.5-2.8-1.5l0,0c-0.5-0.8-0.7-1.7-0.6-2.6c0.2-0.9,0.7-1.7,1.4-2.2
			c1.6-1.1,3.7-0.7,4.9,0.8c0.5,0.8,0.7,1.7,0.6,2.6c-0.2,0.9-0.7,1.7-1.4,2.3C121.3,77.5,120.6,77.7,119.9,77.7z M118.5,75.2
			c0.5,0.8,1.6,0.9,2.3,0.4c0.4-0.3,0.6-0.6,0.7-1.1c0.1-0.4,0-0.9-0.3-1.2c-0.5-0.8-1.6-0.9-2.3-0.4c-0.4,0.3-0.6,0.6-0.7,1.1
			C118.2,74.4,118.3,74.8,118.5,75.2L118.5,75.2z"/>
		<g>
			<path class="st11" d="M107.1,134.1l-2.9-5.1l3.1-1.8l2.9,5.1L107.1,134.1z M102.8,126.5l-2.9-5.1l3.1-1.8l2.9,5.1L102.8,126.5z
				 M98.4,118.9l-2.9-5.1l3.1-1.8l2.9,5.1L98.4,118.9z M94,111.3l-2.9-5.1l3.1-1.8l2.9,5.1L94,111.3z M89.6,103.7l-2.9-5.1l3.1-1.8
				l2.9,5.1L89.6,103.7z"/>
		</g>
		<g>
			<polygon class="st12" points="7.1,97.4 5.8,94 6.7,93.7 19.3,91.4 29.5,83.1 44.9,81.4 46,81.1 47.2,84.5 45.5,85 30.9,86.6 
				20.8,94.8 7.5,97.3 			"/>
		</g>
		<g>
			<polygon class="st13" points="136.1,106.7 98.4,87.8 100.1,84.7 100.3,84.8 137.8,103.5 			"/>
		</g>
		<g>
			<polygon class="st6" points="93.5,51.8 90.7,49.6 107.5,28.5 116.3,28.5 122.5,21.4 125.1,23.9 124.8,24.2 118,32.1 109.2,32.1 
							"/>
		</g>
		<g>
			<polygon class="st14" points="89.3,48.6 86.2,46.9 86.5,46.3 108.7,11.2 111.8,13.1 111.5,13.5 			"/>
		</g>
		<g>
			<polygon class="st4" points="108.3,42 110.6,44.8 112.9,42.8 113.6,43 114.8,39.6 112.2,38.7 			"/>
			<rect x="102" y="45.3" transform="matrix(0.765 -0.644 0.644 0.765 -5.701 78.6767)" class="st4" width="5.8" height="3.6"/>
			<rect x="95.3" y="51" transform="matrix(0.765 -0.644 0.644 0.765 -10.9116 75.6864)" class="st4" width="5.8" height="3.6"/>
			<path class="st4" d="M123,42.7L123,42.7L123,42.7C123,42.7,123,42.7,123,42.7z"/>
			<path class="st4" d="M118.1,42.3c0.2-0.5,0.5-0.9,0.9-1.1l-1.5-0.5l-1.2,3.4l2.1,0.8C117.9,44.1,117.8,43.2,118.1,42.3z"/>
			<path class="st4" d="M121.1,45.8l0.7,0.2l0.3-0.7C121.8,45.6,121.5,45.7,121.1,45.8z"/>
			
				<rect x="133.1" y="44" transform="matrix(0.9244 -0.3814 0.3814 0.9244 -7.1757 55.3637)" class="st4" width="5.8" height="3.6"/>
			
				<rect x="126.1" y="43.4" transform="matrix(0.3434 -0.9392 0.9392 0.3434 40.4612 150.5749)" class="st4" width="3.6" height="5.8"/>
		</g>
		<g>
			<path class="st15" d="M132.2,32.6l-0.4,0.3l-10.5,7.9c0.1,0,0.2,0,0.3,0.1c1.2,0.5,1.9,1.8,1.5,3.1l10.7-8.1l0.4-0.2L132.2,32.6z
				"/>
			<path class="st15" d="M119.5,45.7c-1-0.4-1.6-1.4-1.6-2.4L98.8,57.6l-0.5,0.3l1.7,3.2l0.6-0.3l19.8-14.9
				C120.2,45.9,119.9,45.8,119.5,45.7z"/>
		</g>
		<path class="st10" d="M120.5,46.8c-0.4,0-0.9-0.1-1.3-0.3c-0.9-0.3-1.5-1-1.9-1.9c-0.4-0.9-0.4-1.8,0-2.7c0.7-1.8,2.8-2.6,4.5-1.9
			c0.9,0.3,1.5,1,1.9,1.9c0.4,0.9,0.4,1.8,0,2.7l0,0C123.2,46,121.9,46.8,120.5,46.8z M120.5,41.6c-0.7,0-1.3,0.4-1.6,1
			c-0.2,0.4-0.2,0.9,0,1.3c0.2,0.4,0.5,0.7,0.9,0.9c0.9,0.4,1.8-0.1,2.2-0.9v0c0.2-0.4,0.2-0.9,0-1.3c-0.2-0.4-0.5-0.7-0.9-0.9
			C120.9,41.7,120.7,41.6,120.5,41.6z"/>
		<g>
			<path class="st4" d="M86.2,21.2c0.1-0.5,0.3-1,0.6-1.3l-6.6,1.6L77,43.8l-0.1,0.4l3.5,0.7l3-20.5l3.6-0.9
				C86.4,22.9,86.1,22.1,86.2,21.2z"/>
			<path class="st4" d="M100.4,7.1l-5.1,10.7l-5.6,1.4c1.1,0.4,1.8,1.6,1.6,2.8c0,0.2-0.1,0.4-0.1,0.5l6.7-1.6L103.5,9l0.1-0.3
				L100.4,7.1z"/>
		</g>
		<g>
			<path class="st16" d="M88.3,24.1c-0.9-0.1-1.6-0.7-1.9-1.4l-4.7,21.5l-0.3,0.9l3.4,1.2l0.3-1l4.7-21.4
				C89.4,24.1,88.9,24.2,88.3,24.1z"/>
			<path class="st16" d="M90.6,3.9l-0.1,0.3l-3.4,15.3c0.6-0.5,1.3-0.7,2-0.6c0.6,0.1,1.2,0.4,1.6,0.9l3.2-14.6L94,5.1L90.6,3.9z"/>
		</g>
		<path class="st10" d="M88.7,25c-0.2,0-0.4,0-0.5,0c-1.9-0.3-3.2-2.1-2.9-4c0.3-1.9,2.1-3.2,4-2.9c1.9,0.3,3.2,2.1,2.9,4v0
			C91.9,23.8,90.4,25,88.7,25z M88.7,19.9c-0.8,0-1.5,0.6-1.7,1.4c-0.1,0.9,0.5,1.8,1.4,1.9c0.9,0.1,1.8-0.5,1.9-1.4
			c0.1-0.9-0.5-1.8-1.4-1.9C88.9,19.9,88.8,19.9,88.7,19.9z"/>
		<path class="st1" d="M14.7,56.6c0.2-0.7,0.6-1.2,1.1-1.5L6.2,53l-0.7-0.2l-0.9,3.5l10.5,2.3C14.7,58,14.6,57.3,14.7,56.6z"/>
		<g>
			<path class="st17" d="M16.6,59.7c-1.3-0.3-2.2-1.6-1.9-3L3.4,63.6l-0.2,0l0,0.2l-0.3,0.2l0.2,0.4l-0.2,2.9l1.4,0.1l12.5-7.6
				C16.7,59.7,16.7,59.7,16.6,59.7z"/>
			<path class="st17" d="M46.2,58.1l-20.4-8L18,54.8c1.3,0.4,2.1,1.7,1.8,3.1c0,0,0,0.1,0,0.1l6.4-3.9l18.7,7.4l2,0.9l1.5-3.3
				L46.2,58.1z"/>
		</g>
		<g>
			<path class="st18" d="M53,51.4L34.3,37l-1.9-5.9c-0.5,1-1.7,1.6-2.9,1.3c-0.2,0-0.4-0.1-0.5-0.2l2.3,6.9l19.4,14.9l0.6,0.6
				l2.5-2.6L53,51.4z"/>
			<path class="st18" d="M30.7,27.5c0.2,0,0.4,0.1,0.5,0.2l-2.7-8l-0.9-0.9l-2.6,2.5l0.3,0.3l2.4,7.2C28.3,27.8,29.5,27.2,30.7,27.5
				z"/>
		</g>
		<g>
			<path class="st2" d="M56.9,48.1L39,27.6l-7.8,0.1c1,0.5,1.6,1.7,1.3,2.9c-0.1,0.3-0.2,0.5-0.3,0.7l5.2-0.1l16.6,19l0.6,0.8
				l2.9-2.1L56.9,48.1z"/>
			<path class="st2" d="M27.6,29.4c0.2-0.7,0.6-1.3,1.2-1.6l-9.6,0.1l-0.5-0.3l-1.8,3.1l1.3,0.7l9.7-0.1
				C27.5,30.8,27.4,30.1,27.6,29.4z"/>
		</g>
		<path class="st10" d="M30.1,33.5c-0.3,0-0.5,0-0.8-0.1c-0.9-0.2-1.7-0.8-2.2-1.6c-0.5-0.8-0.6-1.7-0.4-2.6c0.5-1.9,2.3-3,4.2-2.6
			v0c0.9,0.2,1.7,0.8,2.2,1.6c0.5,0.8,0.6,1.7,0.4,2.6C33.1,32.4,31.6,33.5,30.1,33.5z M30.1,28.3c-0.8,0-1.4,0.5-1.6,1.3
			c-0.1,0.4,0,0.9,0.2,1.3c0.2,0.4,0.6,0.7,1,0.8c0.9,0.2,1.8-0.3,2-1.2c0.1-0.4,0-0.9-0.2-1.3c-0.2-0.4-0.6-0.6-1-0.8l0,0
			C30.3,28.3,30.2,28.3,30.1,28.3z"/>
		<path class="st19" d="M65.6,105.7c0-0.1,0-0.1,0-0.2l-9.9,13.8l-6.3,20.3l3.4,1.1l6.1-19.8l9.5-13.3C67.3,107.8,66,107,65.6,105.7
			z"/>
		
			<rect x="58.3" y="136.6" transform="matrix(0.2413 -0.9705 0.9705 0.2413 -87.9158 164.4413)" class="st20" width="5.8" height="3.6"/>
		<path class="st20" d="M67.5,102.6c1.1-0.3,2.3,0.2,2.8,1.1l0.4-2.1l-3.5-0.6l-0.3,1.9C67,102.8,67.2,102.7,67.5,102.6z"/>
		<path class="st20" d="M66.1,106.7L66.1,106.7L66.1,106.7C66.2,106.7,66.1,106.7,66.1,106.7z"/>
		<polygon class="st20" points="60.9,132.3 64.4,133.2 65.8,127.6 62.3,126.7 		"/>
		<path class="st20" d="M69.4,107.3l0.3,0l0-0.2C69.6,107.2,69.5,107.2,69.4,107.3z"/>
		
			<rect x="63.9" y="111" transform="matrix(0.1764 -0.9843 0.9843 0.1764 -55.9448 158.7187)" class="st20" width="5.8" height="3.6"/>
		<path class="st10" d="M68.1,108.6c-1.5,0-3-1-3.4-2.6c-0.2-0.9-0.1-1.8,0.4-2.6c0.5-0.8,1.2-1.4,2.1-1.6h0
			c1.9-0.5,3.8,0.6,4.2,2.5c0.2,0.9,0.1,1.8-0.4,2.6c-0.5,0.8-1.2,1.4-2.1,1.6C68.7,108.5,68.4,108.6,68.1,108.6z M67.7,103.5
			c-0.4,0.1-0.8,0.4-1,0.8s-0.3,0.8-0.2,1.3c0.2,0.9,1.1,1.4,2,1.2c0.4-0.1,0.8-0.4,1-0.8c0.2-0.4,0.3-0.8,0.2-1.3
			C69.5,103.8,68.6,103.2,67.7,103.5L67.7,103.5z"/>
		<g>
			<polygon class="st21" points="48.8,58.2 48.3,57.9 12.2,37.5 14,34.4 50.3,54.9 50.8,55.3 			"/>
		</g>
		<g>
			<polygon class="st22" points="59.3,47.9 59.1,47.6 36.2,13.2 35.9,12.7 39.1,11 39.3,11.4 62.3,45.9 62.5,46.3 			"/>
		</g>
		<g>
			<polygon class="st3" points="76.3,44.2 72.7,44.1 72.7,43.3 71.5,2.3 71.5,1.9 75.1,2.1 75.1,2.4 76.3,43.3 			"/>
		</g>
		<g>
			<path class="st23" d="M30.3,64.2c0.1-0.2,0.1-0.4,0.3-0.6l-6,3L3.9,64l-0.6-0.1l-0.5,3.6l22.3,2.7l6.4-3.2
				C30.5,66.5,30,65.3,30.3,64.2z"/>
			<path class="st23" d="M34.1,62.6c0.9,0.6,1.4,1.7,1.2,2.8c-0.1,0.4-0.3,0.7-0.5,1l9.7,1.6l0.6,0.2l0.9-3.5L34.1,62.6z"/>
		</g>
		<g>
			<path class="st1" d="M30.3,64.2c0.3-1.3,1.6-2.1,2.9-1.9l-3-4.1l-10.7-2.3c0.4,0.6,0.5,1.3,0.3,2c-0.2,0.7-0.6,1.2-1.1,1.5l9.4,2
				l2.2,3C30.2,64.3,30.2,64.2,30.3,64.2z"/>
			<path class="st1" d="M38.3,69.1l-3-4c0,0.1,0,0.2,0,0.3c-0.3,1.3-1.5,2.1-2.8,1.9l3.9,5.2l7.6,0.9l0.9,0l0.2-3.6L38.3,69.1z"/>
		</g>
		<path class="st10" d="M17.2,60.7c-0.3,0-0.5,0-0.8-0.1c-0.9-0.2-1.7-0.8-2.2-1.6c-0.5-0.8-0.6-1.7-0.4-2.6c0.5-1.9,2.3-3,4.2-2.6
			v0c0.9,0.2,1.7,0.8,2.2,1.6c0.5,0.8,0.6,1.7,0.4,2.6C20.2,59.6,18.8,60.7,17.2,60.7z M17.3,55.5c-0.8,0-1.4,0.5-1.6,1.3
			c-0.1,0.4,0,0.9,0.2,1.3c0.2,0.4,0.6,0.7,1,0.8c0.9,0.2,1.8-0.3,2-1.2c0.1-0.4,0-0.9-0.2-1.3c-0.2-0.4-0.6-0.6-1-0.8
			C17.5,55.6,17.4,55.5,17.3,55.5z"/>
		<path class="st10" d="M32.8,68.2c-0.3,0-0.5,0-0.8-0.1c-0.9-0.2-1.7-0.8-2.2-1.6c-0.5-0.8-0.6-1.7-0.4-2.6c0.5-1.9,2.3-3,4.2-2.6
			v0c1.9,0.5,3,2.3,2.6,4.2C35.8,67.2,34.3,68.2,32.8,68.2z M32.8,63.1c-0.8,0-1.4,0.5-1.6,1.3c-0.1,0.4,0,0.9,0.2,1.3
			c0.2,0.4,0.6,0.6,1,0.8c0.9,0.2,1.8-0.3,2-1.2c0.2-0.9-0.3-1.8-1.2-2l0,0C33,63.1,32.9,63.1,32.8,63.1z"/>
		<path class="st20" d="M64.3,121c1.1-0.3,2.1,0.1,2.7,1l0.6-3.1l-3.5-0.6l-0.6,3.1C63.7,121.2,64,121.1,64.3,121z"/>
		<g>
			<path class="st24" d="M87.2,129.8h-8c0.3,0.3,0.6,0.7,0.7,1.2c0.2,0.9,0,1.8-0.7,2.5h5.3l2.5,8.7l0.1,0.5l3.5-1L87.2,129.8z"/>
			<path class="st24" d="M74.9,132.3c-0.3-1.2,0.2-2.3,1.2-2.9l-8.7-6.3c0.2,1.3-0.6,2.5-1.9,2.9c-0.1,0-0.2,0-0.2,0l10.2,7.4h0
				C75.3,133.1,75,132.8,74.9,132.3z"/>
		</g>
		<path class="st10" d="M65,127c-1.5,0-3-1-3.4-2.6c-0.2-0.9-0.1-1.8,0.4-2.6c0.5-0.8,1.2-1.4,2.1-1.6c0.9-0.2,1.8-0.1,2.6,0.4
			c0.8,0.5,1.4,1.2,1.6,2.1c0.2,0.9,0.1,1.8-0.4,2.6c-0.5,0.8-1.2,1.4-2.1,1.6C65.5,126.9,65.2,127,65,127z M65,121.8
			c-0.1,0-0.3,0-0.4,0.1l0,0c-0.4,0.1-0.8,0.4-1,0.8c-0.2,0.4-0.3,0.8-0.2,1.3c0.2,0.9,1.2,1.4,2,1.2c0.4-0.1,0.8-0.4,1-0.8
			c0.2-0.4,0.3-0.8,0.2-1.3c-0.1-0.4-0.4-0.8-0.8-1C65.5,121.9,65.2,121.8,65,121.8z"/>
		<g>
			<path class="st14" d="M87.9,115c0.1,0,0.2,0,0.4-0.1l-6.1-4.9l-0.7-7l-0.4-2.2l-3.6,0.6l0.3,2l0.8,8.4l7.3,5.9
				C85.8,116.5,86.6,115.4,87.9,115z"/>
			<path class="st14" d="M90.9,118.4c-0.3,0.8-0.9,1.4-1.8,1.6c-0.5,0.1-1,0.1-1.5-0.1l9,19.4l0.2,0.6l3.3-1.4L90.9,118.4z"/>
		</g>
		<path class="st16" d="M85.3,99.3l-3.4,1.2l5.2,14.9c0.2-0.1,0.5-0.3,0.8-0.3c1.4-0.4,2.8,0.5,3.1,1.8c0.4,1.4-0.5,2.8-1.8,3.1
			c-1.2,0.3-2.3-0.2-2.9-1.2l-9,10.3c1.2-0.1,2.3,0.7,2.6,1.9c0,0.2,0.1,0.3,0.1,0.5l11.8-13.6L85.3,99.3z"/>
		<path class="st10" d="M77.4,135.1c-1.5,0-3-1-3.4-2.6c-0.2-0.9-0.1-1.8,0.4-2.6c0.5-0.8,1.2-1.4,2.1-1.6l0,0
			c1.9-0.5,3.8,0.6,4.2,2.5c0.2,0.9,0.1,1.8-0.4,2.6c-0.5,0.8-1.2,1.4-2.1,1.6C78,135.1,77.7,135.1,77.4,135.1z M77,130
			c-0.4,0.1-0.8,0.4-1,0.8c-0.2,0.4-0.3,0.8-0.2,1.3c0.2,0.9,1.2,1.4,2,1.2c0.4-0.1,0.8-0.4,1-0.8c0.2-0.4,0.3-0.8,0.2-1.3
			C78.8,130.3,77.9,129.8,77,130z"/>
		<path class="st10" d="M88.5,121c-1.5,0-3-1-3.4-2.6c-0.5-1.9,0.6-3.8,2.5-4.2v0c1.9-0.5,3.8,0.6,4.2,2.5c0.5,1.9-0.6,3.8-2.5,4.2
			C89.1,121,88.8,121,88.5,121z M88.1,115.9c-0.9,0.2-1.4,1.2-1.2,2c0.2,0.9,1.1,1.4,2,1.2c0.9-0.2,1.4-1.1,1.2-2
			C89.9,116.2,89,115.7,88.1,115.9L88.1,115.9z"/>
	</g>
	<g>
		<g>
			<path class="st10" d="M185.6,48.7c2.1,2.7,3.1,6.2,3.1,10.4s-1,7.6-3.1,10.3c-2.3,3.1-5.6,4.6-9.9,4.6c-4.3,0-7.6-1.5-9.9-4.6
				c-2-2.7-3-6.1-3-10.3s1-7.7,3-10.4c2.3-3.1,5.6-4.6,9.9-4.6C180,44.1,183.3,45.7,185.6,48.7z M167.7,50.1c-1.6,2.3-2.4,5.2-2.4,9
				c0,3.7,0.8,6.7,2.4,9c1.8,2.6,4.5,3.8,8.1,3.8c3.5,0,6.2-1.3,8.1-3.8c1.7-2.3,2.5-5.3,2.5-9c0-3.7-0.8-6.7-2.5-9
				c-1.9-2.6-4.6-3.8-8.1-3.8C172.2,46.3,169.5,47.6,167.7,50.1z"/>
		</g>
		<g>
			<path class="st10" d="M207.1,44.8c2.3,0,4.1,0.8,5.5,2.3c1.2,1.4,1.9,3.1,1.9,5.1c0,1.3-0.3,2.4-0.9,3.5c-0.6,1-1.4,1.9-2.5,2.5
				c1.4,0.7,2.5,1.6,3.3,2.8c0.9,1.3,1.4,2.7,1.4,4.4c0,2.2-0.7,4-2,5.5c-1.5,1.7-3.5,2.5-6.1,2.5h-9.2c-1.2,0-2.1-0.4-2.8-1.2
				c-0.6-0.7-0.9-1.6-0.9-2.6V48.6c0-1,0.3-1.9,0.9-2.6c0.7-0.8,1.6-1.2,2.8-1.2H207.1z M210.7,55.7c0.9-1,1.3-2.2,1.3-3.5
				c0-1.4-0.4-2.6-1.3-3.6c-0.9-1.1-2.2-1.6-3.8-1.6h-8c-0.6,0-1,0.2-1.3,0.5c-0.3,0.3-0.4,0.7-0.4,1.2v8.6h9.7
				C208.5,57.3,209.7,56.8,210.7,55.7z M211.9,69.4c1-1.1,1.4-2.4,1.4-4c0-1.6-0.5-3-1.5-4.1c-1.1-1.2-2.6-1.8-4.4-1.8h-10.3v10.1
				c0,0.5,0.1,0.9,0.4,1.2c0.3,0.4,0.8,0.5,1.3,0.5h8.7C209.4,71.2,210.8,70.6,211.9,69.4z"/>
		</g>
		<g>
			<path class="st10" d="M237.5,46.5c1.2,1.2,1.9,2.7,2.3,4.6c0.1,0.5,0,0.9-0.2,1.2c-0.2,0.3-0.5,0.5-0.8,0.5
				c-0.3,0-0.6-0.1-0.9-0.3c-0.3-0.2-0.5-0.5-0.5-0.9c-0.3-1.8-1-3.2-2.1-4c-1.1-0.8-2.7-1.2-4.7-1.2c-2.2,0-3.9,0.4-5.1,1.2
				c-1.3,0.9-2,2.1-2,3.7c0,1.6,0.5,2.8,1.6,3.7c1.1,0.9,3,1.7,5.9,2.3c3.7,0.8,6.3,1.8,7.8,3.2c1.5,1.3,2.2,3.3,2.2,5.7
				c0,2.4-1,4.4-3,5.8c-1.9,1.4-4.2,2.1-7,2.1c-3.2,0-5.6-0.7-7.3-2c-1.9-1.4-2.9-3.6-3.2-6.6c-0.1-0.4,0.1-0.8,0.3-1
				c0.2-0.2,0.5-0.3,0.8-0.3c0.3,0,0.6,0.1,0.9,0.3c0.3,0.2,0.4,0.6,0.5,1c0.2,2.3,1,4,2.4,5.1c1.3,1,3.1,1.5,5.6,1.5
				c1.9,0,3.5-0.4,5-1.3c1.8-1,2.7-2.4,2.7-4.2c0-1.9-0.5-3.3-1.4-4.2c-1.1-1.1-3.3-2-6.6-2.8c-3.2-0.8-5.5-1.7-6.9-2.7
				c-1.7-1.3-2.5-3.1-2.5-5.4c0-2.3,0.9-4,2.6-5.3c1.7-1.2,4.1-1.9,7.1-1.9C233.6,44.1,235.9,44.9,237.5,46.5z"/>
		</g>
		<g>
			<path class="st10" d="M265.6,45.1c0.2,0.2,0.3,0.5,0.3,0.8c0,0.3-0.1,0.5-0.3,0.7c-0.2,0.2-0.5,0.3-0.9,0.3H251
				c-0.6,0-1,0.2-1.3,0.5c-0.3,0.3-0.4,0.7-0.4,1.2v8.8h14.1c0.4,0,0.7,0.1,0.9,0.3c0.2,0.2,0.3,0.5,0.3,0.8c0,0.3-0.1,0.5-0.3,0.7
				c-0.2,0.2-0.5,0.3-0.9,0.3h-14.1v9.8c0,0.5,0.1,0.9,0.4,1.2c0.3,0.4,0.8,0.5,1.3,0.5h14.3c0.4,0,0.7,0.1,0.9,0.3
				c0.2,0.2,0.3,0.5,0.3,0.8c0,0.3-0.1,0.5-0.3,0.7c-0.2,0.2-0.5,0.3-0.9,0.3h-14.7c-1.2,0-2.1-0.4-2.8-1.2
				c-0.6-0.7-0.9-1.6-0.9-2.6V48.6c0-1,0.3-1.9,0.9-2.6c0.7-0.8,1.6-1.2,2.8-1.2h14.2C265.1,44.8,265.4,44.9,265.6,45.1z"/>
		</g>
		<g>
			<path class="st10" d="M284.2,44.8c2.5,0,4.5,0.8,6,2.4c1.3,1.5,2,3.3,2,5.4c0,1.6-0.4,3-1.2,4.2c-0.8,1.2-1.9,2-3.3,2.5
				c0.9,0.1,1.7,0.5,2.3,1.1c0.8,0.8,1.2,1.8,1.2,3.1c0,2,0.1,3.8,0.3,5.2c0.2,1.3,0.4,2.5,0.8,3.4c0.2,0.4,0.2,0.8,0,1.1
				c-0.2,0.3-0.4,0.5-0.7,0.6c-0.3,0.1-0.6,0.1-0.9,0c-0.3-0.1-0.6-0.4-0.7-0.7c-0.4-1-0.7-2.4-0.9-4.2c-0.2-1.5-0.2-3.3-0.2-5.2
				c0-1.1-0.5-1.9-1.4-2.6c-0.9-0.6-1.9-0.9-3.1-0.9h-10.1v12.3c0,0.4-0.1,0.7-0.4,1c-0.2,0.2-0.5,0.3-0.8,0.3
				c-0.3,0-0.6-0.1-0.9-0.3c-0.2-0.2-0.3-0.6-0.3-1V48.6c0-1,0.3-1.9,0.9-2.6c0.7-0.8,1.6-1.2,2.8-1.2H284.2z M288.3,56.5
				c1-1.1,1.5-2.4,1.5-3.8c0-1.5-0.5-2.8-1.5-3.9c-1.1-1.2-2.6-1.8-4.4-1.8h-8.1c-0.6,0-1,0.2-1.3,0.5c-0.3,0.3-0.4,0.7-0.4,1.2v9.6
				h9.8C285.7,58.3,287.2,57.7,288.3,56.5z"/>
		</g>
		<g>
			<path class="st10" d="M295.4,45.9c-0.2-0.4-0.2-0.8,0-1.1c0.2-0.3,0.4-0.5,0.7-0.6c0.3-0.1,0.6-0.1,0.9,0.1
				c0.3,0.2,0.5,0.5,0.7,0.9l8.6,25.2h0.2l8.6-25.2c0.1-0.4,0.3-0.7,0.7-0.9c0.3-0.1,0.6-0.1,0.9,0c0.3,0.1,0.5,0.3,0.7,0.6
				c0.2,0.3,0.2,0.7,0,1.1l-9.1,26.4c-0.4,1.2-1,1.8-1.9,1.8c-0.9,0-1.5-0.6-1.9-1.8L295.4,45.9z"/>
		</g>
		<g>
			<path class="st10" d="M329.9,44.6c0.4-0.3,0.8-0.4,1.3-0.4c0.4,0,0.9,0.1,1.2,0.4c0.4,0.3,0.7,0.8,0.9,1.4l9.6,26.3
				c0.1,0.4,0.1,0.8,0,1.1c-0.1,0.3-0.3,0.5-0.7,0.6c-0.3,0.1-0.6,0.1-0.9,0c-0.3-0.2-0.5-0.5-0.7-0.9l-3.3-9h-12.5l-3.3,9
				c-0.2,0.4-0.4,0.7-0.7,0.9c-0.3,0.2-0.6,0.2-0.9,0.1c-0.3-0.1-0.5-0.3-0.7-0.6c-0.2-0.3-0.1-0.7,0-1.1l9.6-26.3
				C329.1,45.4,329.4,44.9,329.9,44.6z M336.6,61.9l-5.4-14.8h-0.1l-5.4,14.8H336.6z"/>
		</g>
		<g>
			<path class="st10" d="M365.2,45.1c0.2,0.2,0.3,0.5,0.3,0.8c0,0.3-0.1,0.5-0.3,0.7c-0.2,0.2-0.5,0.3-0.9,0.3h-7.9v25.9
				c0,0.4-0.1,0.7-0.4,0.9c-0.2,0.2-0.5,0.3-0.8,0.3c-0.3,0-0.6-0.1-0.9-0.3c-0.2-0.2-0.3-0.5-0.3-0.9V47h-8.2
				c-0.6,0-0.9-0.4-0.9-1.1c0-0.7,0.3-1.1,0.9-1.1h18.5C364.7,44.8,365,44.9,365.2,45.1z"/>
		</g>
		<g>
			<path class="st10" d="M392.3,49.9c2.1,2.6,3.1,5.9,3.1,9.8c0,3.9-1,7.1-3.1,9.7c-2.4,3-5.6,4.5-9.9,4.5c-4.2,0-7.5-1.5-9.9-4.5
				c-2-2.6-3-5.9-3-9.7c0-3.9,1-7.2,3-9.8c2.4-3,5.7-4.5,9.9-4.5C386.7,45.4,390,46.9,392.3,49.9z M374.4,51.3
				c-1.6,2.2-2.4,5-2.4,8.4c0,3.4,0.8,6.2,2.4,8.4c1.9,2.5,4.6,3.8,8.1,3.8c3.5,0,6.2-1.3,8.1-3.8c1.7-2.2,2.5-5,2.5-8.4
				c0-3.4-0.8-6.2-2.5-8.4c-1.9-2.5-4.6-3.8-8.1-3.8C378.9,47.6,376.2,48.8,374.4,51.3z M380,44.6h-2.3l2.8-5.1h4.1L380,44.6z"/>
		</g>
		<g>
			<path class="st10" d="M414.8,44.8c2.5,0,4.5,0.8,6,2.4c1.3,1.5,2,3.3,2,5.4c0,1.6-0.4,3-1.2,4.2c-0.8,1.2-1.9,2-3.3,2.5
				c0.9,0.1,1.7,0.5,2.3,1.1c0.8,0.8,1.2,1.8,1.2,3.1c0,2,0.1,3.8,0.3,5.2c0.2,1.3,0.4,2.5,0.8,3.4c0.2,0.4,0.2,0.8,0,1.1
				c-0.2,0.3-0.4,0.5-0.7,0.6c-0.3,0.1-0.6,0.1-0.9,0c-0.3-0.1-0.6-0.4-0.7-0.7c-0.4-1-0.7-2.4-0.9-4.2c-0.2-1.5-0.2-3.3-0.2-5.2
				c0-1.1-0.5-1.9-1.4-2.6c-0.9-0.6-1.9-0.9-3.1-0.9h-10.1v12.3c0,0.4-0.1,0.7-0.4,1c-0.2,0.2-0.5,0.3-0.8,0.3
				c-0.3,0-0.6-0.1-0.9-0.3c-0.2-0.2-0.3-0.6-0.3-1V48.6c0-1,0.3-1.9,0.9-2.6c0.7-0.8,1.6-1.2,2.8-1.2H414.8z M419,56.5
				c1-1.1,1.5-2.4,1.5-3.8c0-1.5-0.5-2.8-1.5-3.9c-1.1-1.2-2.6-1.8-4.4-1.8h-8.1c-0.6,0-1,0.2-1.3,0.5c-0.3,0.3-0.4,0.7-0.4,1.2v9.6
				h9.8C416.4,58.3,417.8,57.7,419,56.5z"/>
		</g>
		<g>
			<path class="st10" d="M429.7,44.5c0.2-0.2,0.5-0.3,0.9-0.3c0.3,0,0.6,0.1,0.8,0.3c0.3,0.2,0.4,0.6,0.4,1v27.4
				c0,0.4-0.1,0.7-0.4,0.9c-0.2,0.2-0.5,0.3-0.8,0.3c-0.3,0-0.6-0.1-0.9-0.3c-0.2-0.2-0.3-0.5-0.3-0.9V45.4
				C429.3,45,429.4,44.7,429.7,44.5z"/>
		</g>
		<g>
			<path class="st10" d="M461,48.7c2.1,2.7,3.1,6.2,3.1,10.4s-1,7.6-3.1,10.3c-2.3,3.1-5.6,4.6-9.9,4.6c-4.3,0-7.6-1.5-9.9-4.6
				c-2-2.7-3-6.1-3-10.3s1-7.7,3-10.4c2.3-3.1,5.6-4.6,9.9-4.6C455.4,44.1,458.7,45.7,461,48.7z M443.1,50.1c-1.6,2.3-2.4,5.2-2.4,9
				c0,3.7,0.8,6.7,2.4,9c1.8,2.6,4.5,3.8,8.1,3.8c3.5,0,6.2-1.3,8.1-3.8c1.7-2.3,2.5-5.3,2.5-9c0-3.7-0.8-6.7-2.5-9
				c-1.9-2.6-4.6-3.8-8.1-3.8C447.6,46.3,444.9,47.6,443.1,50.1z"/>
		</g>
	</g>
	<g>
		<g>
			<path class="st10" d="M168.7,83.3c2.7,0,4.8,0.9,6.3,2.7c1.4,1.6,2.1,3.8,2.1,6.3c0,2.6-0.7,4.7-2.1,6.3
				c-1.5,1.8-3.6,2.7-6.3,2.7h-3.5c-0.8,0-1.3-0.2-1.8-0.7c-0.4-0.4-0.6-1-0.6-1.6V85.7c0-0.7,0.2-1.2,0.6-1.6
				c0.4-0.5,1-0.7,1.8-0.7H168.7z M168.7,100c2.2,0,3.9-0.8,5.1-2.3c1.2-1.4,1.7-3.2,1.7-5.4c0-2.2-0.6-4-1.7-5.4
				c-1.2-1.5-3-2.3-5.1-2.3h-3.2c-0.4,0-0.6,0.1-0.8,0.3c-0.2,0.2-0.2,0.4-0.2,0.8v13.1c0,0.3,0.1,0.5,0.2,0.7
				c0.2,0.2,0.5,0.3,0.8,0.3H168.7z"/>
		</g>
		<g>
			<path class="st10" d="M185.8,83.2c0.2-0.2,0.5-0.3,0.8-0.3c0.3,0,0.5,0.1,0.8,0.3c0.3,0.2,0.5,0.5,0.6,0.9l6.1,16.6
				c0.1,0.2,0.1,0.5,0,0.7c-0.1,0.2-0.2,0.3-0.4,0.4c-0.2,0.1-0.4,0.1-0.6,0c-0.2-0.1-0.3-0.3-0.4-0.5l-2.1-5.7h-7.9l-2.1,5.7
				c-0.1,0.2-0.3,0.4-0.5,0.5c-0.2,0.1-0.4,0.1-0.6,0c-0.2-0.1-0.3-0.2-0.4-0.4c-0.1-0.2-0.1-0.4,0-0.7l6-16.6
				C185.4,83.7,185.6,83.4,185.8,83.2z M190.1,94.1l-3.4-9.3h-0.1l-3.4,9.3H190.1z"/>
		</g>
		<g>
			<path class="st10" d="M205.8,83.3c0.2-0.2,0.4-0.3,0.8-0.3c0.3,0,0.6,0,0.8,0.2c0.3,0.2,0.4,0.4,0.5,0.7l0.5,1.6l4.8,14.2
				l4.9-14.2l0.5-1.4c0.1-0.3,0.3-0.6,0.5-0.7c0.3-0.1,0.5-0.2,0.8-0.2c0.3,0,0.5,0.1,0.7,0.3c0.2,0.2,0.3,0.5,0.3,0.9V101
				c0,0.2-0.1,0.4-0.2,0.6c-0.1,0.1-0.3,0.2-0.5,0.2s-0.4-0.1-0.5-0.2c-0.1-0.1-0.2-0.3-0.2-0.6V85.4l-5.2,15.4
				c-0.3,0.6-0.6,0.9-1.1,0.9c-0.5,0-0.8-0.3-1.1-0.9L207,85.4V101c0,0.2-0.1,0.4-0.2,0.6c-0.1,0.1-0.3,0.2-0.5,0.2
				c-0.2,0-0.4-0.1-0.5-0.2c-0.1-0.1-0.2-0.3-0.2-0.6V84.1C205.5,83.7,205.6,83.5,205.8,83.3z"/>
		</g>
		<g>
			<path class="st10" d="M239.3,85.8c1.3,1.7,2,3.9,2,6.5c0,2.6-0.7,4.8-2,6.5c-1.5,1.9-3.5,2.9-6.2,2.9c-2.7,0-4.8-1-6.2-2.9
				c-1.3-1.7-1.9-3.9-1.9-6.5c0-2.6,0.6-4.8,1.9-6.5c1.5-1.9,3.6-2.9,6.2-2.9C235.8,82.9,237.9,83.9,239.3,85.8z M228,86.7
				c-1,1.4-1.5,3.3-1.5,5.7c0,2.3,0.5,4.2,1.5,5.7c1.2,1.6,2.9,2.4,5.1,2.4c2.2,0,3.9-0.8,5.1-2.4c1-1.5,1.6-3.3,1.6-5.7
				c0-2.3-0.5-4.2-1.6-5.7c-1.2-1.6-2.9-2.4-5.1-2.4C230.9,84.3,229.2,85.1,228,86.7z"/>
		</g>
		<g>
			<path class="st10" d="M252.9,83.3c1.4,0,2.6,0.5,3.5,1.4c0.8,0.9,1.2,2,1.2,3.2c0,0.8-0.2,1.5-0.6,2.2c-0.4,0.7-0.9,1.2-1.6,1.6
				c0.9,0.4,1.6,1,2.1,1.7c0.6,0.8,0.9,1.7,0.9,2.8c0,1.4-0.4,2.5-1.3,3.5c-0.9,1.1-2.2,1.6-3.8,1.6h-5.8c-0.8,0-1.3-0.2-1.8-0.7
				c-0.4-0.4-0.6-1-0.6-1.6V85.7c0-0.7,0.2-1.2,0.6-1.6c0.4-0.5,1-0.7,1.8-0.7H252.9z M255.2,90.2c0.6-0.6,0.8-1.4,0.8-2.2
				c0-0.9-0.3-1.6-0.8-2.3c-0.6-0.7-1.4-1-2.4-1h-5c-0.4,0-0.6,0.1-0.8,0.3c-0.2,0.2-0.2,0.4-0.2,0.8v5.4h6.1
				C253.8,91.2,254.6,90.9,255.2,90.2z M255.9,98.8c0.6-0.7,0.9-1.5,0.9-2.5c0-1-0.3-1.9-1-2.6c-0.7-0.8-1.6-1.2-2.8-1.2h-6.5v6.3
				c0,0.3,0.1,0.5,0.2,0.7c0.2,0.2,0.5,0.3,0.8,0.3h5.5C254.4,100,255.3,99.6,255.9,98.8z"/>
		</g>
		<g>
			<path class="st10" d="M262.6,83.1c0.1-0.1,0.3-0.2,0.5-0.2c0.2,0,0.4,0.1,0.5,0.2c0.2,0.1,0.2,0.4,0.2,0.6V101
				c0,0.2-0.1,0.4-0.2,0.6c-0.1,0.1-0.3,0.2-0.5,0.2c-0.2,0-0.4-0.1-0.5-0.2c-0.1-0.1-0.2-0.3-0.2-0.6V83.7
				C262.4,83.5,262.5,83.3,262.6,83.1z"/>
		</g>
		<g>
			<path class="st10" d="M269.1,83.1c0.1-0.1,0.3-0.2,0.5-0.2c0.2,0,0.4,0.1,0.5,0.2c0.2,0.1,0.2,0.4,0.2,0.6v15.2
				c0,0.3,0.1,0.5,0.2,0.7c0.2,0.2,0.5,0.3,0.8,0.3h7.5c0.2,0,0.4,0.1,0.6,0.2c0.1,0.1,0.2,0.3,0.2,0.5c0,0.2-0.1,0.3-0.2,0.5
				c-0.1,0.1-0.3,0.2-0.6,0.2h-7.8c-0.8,0-1.3-0.2-1.8-0.7c-0.4-0.4-0.6-1-0.6-1.6V83.7C268.9,83.5,268.9,83.3,269.1,83.1z"/>
		</g>
		<g>
			<path class="st10" d="M283,83.1c0.1-0.1,0.3-0.2,0.5-0.2c0.2,0,0.4,0.1,0.5,0.2c0.2,0.1,0.2,0.4,0.2,0.6V101
				c0,0.2-0.1,0.4-0.2,0.6c-0.1,0.1-0.3,0.2-0.5,0.2c-0.2,0-0.4-0.1-0.5-0.2c-0.1-0.1-0.2-0.3-0.2-0.6V83.7
				C282.8,83.5,282.8,83.3,283,83.1z"/>
		</g>
		<g>
			<path class="st10" d="M295.1,83.3c2.7,0,4.8,0.9,6.3,2.7c1.4,1.6,2.1,3.8,2.1,6.3c0,2.6-0.7,4.7-2.1,6.3
				c-1.5,1.8-3.6,2.7-6.3,2.7h-3.5c-0.8,0-1.3-0.2-1.8-0.7c-0.4-0.4-0.6-1-0.6-1.6V85.7c0-0.7,0.2-1.2,0.6-1.6
				c0.4-0.5,1-0.7,1.8-0.7H295.1z M295.1,100c2.2,0,3.9-0.8,5.1-2.3c1.2-1.4,1.7-3.2,1.7-5.4c0-2.2-0.6-4-1.7-5.4
				c-1.2-1.5-3-2.3-5.1-2.3h-3.2c-0.4,0-0.6,0.1-0.8,0.3c-0.2,0.2-0.2,0.4-0.2,0.8v13.1c0,0.3,0.1,0.5,0.2,0.7
				c0.2,0.2,0.5,0.3,0.8,0.3H295.1z"/>
		</g>
		<g>
			<path class="st10" d="M312.2,83.2c0.2-0.2,0.5-0.3,0.8-0.3c0.3,0,0.5,0.1,0.8,0.3c0.3,0.2,0.5,0.5,0.6,0.9l6.1,16.6
				c0.1,0.2,0.1,0.5,0,0.7c-0.1,0.2-0.2,0.3-0.4,0.4c-0.2,0.1-0.4,0.1-0.6,0c-0.2-0.1-0.3-0.3-0.4-0.5l-2.1-5.7h-7.9l-2.1,5.7
				c-0.1,0.2-0.3,0.4-0.5,0.5c-0.2,0.1-0.4,0.1-0.6,0c-0.2-0.1-0.3-0.2-0.4-0.4c-0.1-0.2-0.1-0.4,0-0.7l6-16.6
				C311.8,83.7,312,83.4,312.2,83.2z M316.5,94.1l-3.4-9.3H313l-3.4,9.3H316.5z"/>
		</g>
		<g>
			<path class="st10" d="M329.3,83.3c2.7,0,4.8,0.9,6.3,2.7c1.4,1.6,2.1,3.8,2.1,6.3c0,2.6-0.7,4.7-2.1,6.3
				c-1.5,1.8-3.6,2.7-6.3,2.7h-3.5c-0.8,0-1.3-0.2-1.8-0.7c-0.4-0.4-0.6-1-0.6-1.6V85.7c0-0.7,0.2-1.2,0.6-1.6
				c0.4-0.5,1-0.7,1.8-0.7H329.3z M329.3,100c2.2,0,3.9-0.8,5.1-2.3c1.2-1.4,1.7-3.2,1.7-5.4c0-2.2-0.6-4-1.7-5.4
				c-1.2-1.5-3-2.3-5.1-2.3h-3.2c-0.4,0-0.6,0.1-0.8,0.3c-0.2,0.2-0.2,0.4-0.2,0.8v13.1c0,0.3,0.1,0.5,0.2,0.7
				c0.2,0.2,0.5,0.3,0.8,0.3H329.3z"/>
		</g>
		<g>
			<path class="st10" d="M353.4,83.5c0.1,0.1,0.2,0.3,0.2,0.5c0,0.2-0.1,0.3-0.2,0.5c-0.1,0.1-0.3,0.2-0.6,0.2h-8.7
				c-0.4,0-0.6,0.1-0.8,0.3c-0.2,0.2-0.2,0.4-0.2,0.8v5.5h8.9c0.2,0,0.4,0.1,0.6,0.2c0.1,0.1,0.2,0.3,0.2,0.5c0,0.2-0.1,0.3-0.2,0.5
				c-0.1,0.1-0.3,0.2-0.6,0.2h-8.9v6.2c0,0.3,0.1,0.5,0.2,0.7c0.2,0.2,0.5,0.3,0.8,0.3h9c0.2,0,0.4,0.1,0.6,0.2
				c0.1,0.1,0.2,0.3,0.2,0.5c0,0.2-0.1,0.3-0.2,0.5c-0.1,0.1-0.3,0.2-0.6,0.2h-9.3c-0.8,0-1.3-0.2-1.8-0.7c-0.4-0.4-0.6-1-0.6-1.6
				V85.7c0-0.7,0.2-1.2,0.6-1.6c0.4-0.5,1-0.7,1.8-0.7h8.9C353.1,83.3,353.3,83.4,353.4,83.5z"/>
		</g>
		<g>
			<path class="st10" d="M365.9,83.1c0.1-0.1,0.3-0.2,0.5-0.2c0.2,0,0.4,0.1,0.5,0.2c0.2,0.1,0.2,0.4,0.2,0.6v11.4
				c0,1.5,0.4,2.7,1.2,3.6c0.9,1.1,2.2,1.7,3.9,1.7c1.7,0,3-0.6,3.9-1.7c0.8-0.9,1.2-2.2,1.2-3.6V83.6c0-0.2,0.1-0.4,0.2-0.5
				c0.1-0.1,0.3-0.1,0.5-0.1c0.2,0,0.4,0.1,0.5,0.2c0.2,0.1,0.2,0.3,0.2,0.5v11.5c0,1.8-0.5,3.4-1.6,4.6c-1.2,1.4-2.8,2.1-5,2.1
				c-2.2,0-3.8-0.7-5-2.1c-1-1.2-1.6-2.8-1.6-4.6V83.7C365.6,83.5,365.7,83.3,365.9,83.1z"/>
		</g>
		<g>
			<path class="st10" d="M391.3,83.3c1.6,0,2.8,0.5,3.8,1.5c0.8,0.9,1.3,2.1,1.3,3.4c0,1-0.3,1.9-0.8,2.6c-0.5,0.8-1.2,1.3-2.1,1.6
				c0.6,0,1,0.3,1.5,0.7c0.5,0.5,0.8,1.1,0.8,1.9c0,1.3,0.1,2.4,0.2,3.3c0.1,0.8,0.3,1.6,0.5,2.2c0.1,0.3,0.1,0.5,0,0.7
				c-0.1,0.2-0.3,0.3-0.5,0.4c-0.2,0.1-0.4,0.1-0.6,0c-0.2-0.1-0.4-0.2-0.4-0.4c-0.2-0.7-0.4-1.5-0.6-2.6c-0.1-1-0.1-2.1-0.1-3.3
				c0-0.7-0.3-1.2-0.9-1.6c-0.5-0.4-1.2-0.6-2-0.6H385v7.7c0,0.3-0.1,0.5-0.2,0.6c-0.1,0.1-0.3,0.2-0.5,0.2c-0.2,0-0.4-0.1-0.5-0.2
				c-0.1-0.1-0.2-0.4-0.2-0.6V85.7c0-0.7,0.2-1.2,0.6-1.6c0.4-0.5,1-0.7,1.8-0.7H391.3z M393.9,90.7c0.6-0.7,0.9-1.5,0.9-2.4
				c0-0.9-0.3-1.8-0.9-2.4c-0.7-0.8-1.6-1.1-2.8-1.1h-5.1c-0.4,0-0.6,0.1-0.8,0.3c-0.2,0.2-0.2,0.4-0.2,0.8v6h6.2
				C392.3,91.8,393.2,91.5,393.9,90.7z"/>
		</g>
		<g>
			<path class="st10" d="M407.9,83.3c1.4,0,2.6,0.5,3.5,1.4c0.8,0.9,1.2,2,1.2,3.2c0,0.8-0.2,1.5-0.6,2.2c-0.4,0.7-0.9,1.2-1.6,1.6
				c0.9,0.4,1.6,1,2.1,1.7c0.6,0.8,0.9,1.7,0.9,2.8c0,1.4-0.4,2.5-1.3,3.5c-0.9,1.1-2.2,1.6-3.8,1.6h-5.8c-0.8,0-1.3-0.2-1.8-0.7
				c-0.4-0.4-0.6-1-0.6-1.6V85.7c0-0.7,0.2-1.2,0.6-1.6c0.4-0.5,1-0.7,1.8-0.7H407.9z M410.2,90.2c0.6-0.6,0.8-1.4,0.8-2.2
				c0-0.9-0.3-1.6-0.8-2.3c-0.6-0.7-1.4-1-2.4-1h-5c-0.4,0-0.6,0.1-0.8,0.3c-0.2,0.2-0.2,0.4-0.2,0.8v5.4h6.1
				C408.8,91.2,409.6,90.9,410.2,90.2z M411,98.8c0.6-0.7,0.9-1.5,0.9-2.5c0-1-0.3-1.9-1-2.6c-0.7-0.8-1.6-1.2-2.8-1.2h-6.5v6.3
				c0,0.3,0.1,0.5,0.2,0.7c0.2,0.2,0.5,0.3,0.8,0.3h5.5C409.4,100,410.3,99.6,411,98.8z"/>
		</g>
		<g>
			<path class="st10" d="M422.1,83.2c0.2-0.2,0.5-0.3,0.8-0.3c0.3,0,0.5,0.1,0.8,0.3c0.3,0.2,0.5,0.5,0.6,0.9l6.1,16.6
				c0.1,0.2,0.1,0.5,0,0.7c-0.1,0.2-0.2,0.3-0.4,0.4c-0.2,0.1-0.4,0.1-0.6,0c-0.2-0.1-0.3-0.3-0.4-0.5l-2.1-5.7h-7.9l-2.1,5.7
				c-0.1,0.2-0.3,0.4-0.5,0.5c-0.2,0.1-0.4,0.1-0.6,0c-0.2-0.1-0.3-0.2-0.4-0.4c-0.1-0.2-0.1-0.4,0-0.7l6-16.6
				C421.6,83.7,421.8,83.4,422.1,83.2z M426.3,94.1l-3.4-9.3h-0.1l-3.4,9.3H426.3z"/>
		</g>
		<g>
			<path class="st10" d="M434.1,82.9c0.5-0.1,0.9,0.1,1.1,0.5l0.8,1.2l8.6,14.3V83.6c0-0.2,0.1-0.4,0.2-0.5c0.1-0.1,0.3-0.1,0.5-0.1
				c0.2,0,0.4,0.1,0.5,0.2c0.2,0.1,0.2,0.3,0.2,0.5v17.1c0,0.6-0.2,0.9-0.7,1c-0.4,0.1-0.8,0-1-0.3l-1.4-2l-8.3-13.7v15.2
				c0,0.3-0.1,0.5-0.2,0.7c-0.1,0.1-0.3,0.2-0.5,0.2c-0.2,0-0.4-0.1-0.5-0.2c-0.1-0.2-0.2-0.4-0.2-0.6v-17
				C433.3,83.3,433.6,83,434.1,82.9z"/>
		</g>
		<g>
			<path class="st10" d="M455.8,83.2c0.2-0.2,0.5-0.3,0.8-0.3c0.3,0,0.5,0.1,0.8,0.3c0.3,0.2,0.5,0.5,0.6,0.9l6.1,16.6
				c0.1,0.2,0.1,0.5,0,0.7c-0.1,0.2-0.2,0.3-0.4,0.4c-0.2,0.1-0.4,0.1-0.6,0c-0.2-0.1-0.3-0.3-0.4-0.5l-2.1-5.7h-7.9l-2.1,5.7
				c-0.1,0.2-0.3,0.4-0.5,0.5c-0.2,0.1-0.4,0.1-0.6,0c-0.2-0.1-0.3-0.2-0.4-0.4c-0.1-0.2-0.1-0.4,0-0.7l6-16.6
				C455.3,83.7,455.5,83.4,455.8,83.2z M460,94.1l-3.4-9.3h-0.1l-3.4,9.3H460z"/>
		</g>
	</g>
	<g>
		<path class="st0" d="M414.4,121.3l-16.4,0l0,5.6l11,0v5.5l-11,0l0,11.2h-5.5v-28.1h21.9V121.3L414.4,121.3z M417.2,143.7l0-5.6
			c0-0.1,0.1,0,0.2,0l13.6,0c1.5,0,2.7-1.3,2.7-2.8c0-1.6-1.2-2.8-2.7-2.8l-5.5,0.1c-4.5,0-8.2-3.8-8.2-8.4s3.7-8.4,8.2-8.4l13.7,0
			l0,5.6h0l-13.7,0c-1.5,0-2.7,1.3-2.7,2.8c0,1.6,1.2,2.8,2.7,2.8l5.5-0.1c4.5,0,8.2,3.8,8.2,8.4c0,4.7-3.7,8.4-8.2,8.4L417.2,143.7
			L417.2,143.7z M452.8,121.2h10.9v-5.6l-10.9,0v0c-6,0-11,5-11,11.2l0,0v5.6l0,0c0,6.2,4.9,11.2,11,11.2v0l10.9,0V138h-10.9
			c-3,0-5.5-2.5-5.5-5.6v-5.6C447.4,123.7,449.8,121.2,452.8,121.2L452.8,121.2z M387.1,132.4c0,6.2-4.9,11.2-10.9,11.2
			c-6,0-10.9-5-10.9-11.2v-16.8h5.5v16.8c0,3.1,2.5,5.6,5.5,5.6c3,0,5.5-2.5,5.5-5.6v-16.8h5.5V132.4z"/>
	</g>
</g>
</svg>
