<?xml version="1.0" encoding="utf-8"?>
<!-- Generator: Adobe Illustrator 22.0.1, SVG Export Plug-In . SVG Version: 6.00 Build 0)  -->
<svg version="1.1" id="Camada_1" xmlns="http://www.w3.org/2000/svg" xmlns:xlink="http://www.w3.org/1999/xlink" x="0px" y="0px"
	 viewBox="0 0 1440 2400" style="enable-background:new 0 0 1440 2400;" xml:space="preserve">
<style type="text/css">
	.st0{fill:#E9F2F5;}
	.st1{fill:none;stroke:#FFFFFF;stroke-width:10;stroke-miterlimit:22.926;stroke-dasharray:14,10;}
	.st2{fill:#FFCC05;}
	.st3{fill:#26B4B8;}
	.st4{fill:#72BF44;}
	.st5{fill:#00BA23;}
	.st6{fill:#F37121;}
	.st7{fill:#EE3279;}
	.st8{fill:#008A9D;}
	.st9{fill:#002D45;}
	.st10{fill:#213A81;}
	.st11{fill:#EE2F24;}
	.st12{fill:#9F6BAD;}
	.st13{fill:#057FD9;}
	.st14{fill-rule:evenodd;clip-rule:evenodd;fill:#E9F2F5;}
	.st15{fill:#010202;}
</style>
<rect id="BG-2" y="0" class="st0" width="1440" height="2400"/>
<path id="grafismo_01" class="st1" d="M0,938.5h410.6c3,0,5.8-1.2,7.9-3.3l116-116c2.1-2.1,4.9-3.3,7.9-3.3h247.7
	c3,0,5.8-1.2,7.9-3.3l33.3-33.3c2.1-2.1,4.9-3.3,7.9-3.3h511c3,0,5.8,1.2,7.9,3.3l33.3,33.3c2.1,2.1,4.9,3.3,7.9,3.3h40.7"/>
<g>
	<g>
		<polygon class="st2" points="1440,571.6 1382.7,571.6 1353.5,542.4 1229.4,542.4 1229,542.1 1163.8,476.8 1107,476.8 
			1080.5,450.3 1022.2,450.3 1009.2,463.4 776.7,463.4 750.5,437.3 502.4,437.3 502.4,434.6 751.6,434.6 777.8,460.8 1008.1,460.8 
			1021.2,447.7 1081.6,447.7 1108.1,474.2 1164.8,474.2 1165.2,474.6 1230.4,539.8 1354.6,539.8 1383.8,569 1440,569 		"/>
	</g>
	<g>
		<rect x="1229.5" y="514.2" class="st3" width="210.5" height="2.6"/>
	</g>
	<g>
		<polygon class="st4" points="415.6,424.9 283.4,424.9 269.9,411.5 130,411.5 130,408.9 271,408.9 284.5,422.3 414.5,422.3 
			427.9,408.9 999.1,408.9 1064.3,343.7 1121.7,343.7 1162.6,383.2 1219.4,383.2 1231.1,394.9 1253.4,394.9 1354.4,293.7 
			1398.6,293.7 1411.8,306.9 1440,306.9 1440,309.5 1410.7,309.5 1397.5,296.4 1355.5,296.4 1254.5,397.6 1230,397.6 1218.3,385.9 
			1161.5,385.9 1120.7,346.3 1065.4,346.3 1000.2,411.5 429,411.5 		"/>
	</g>
	<g>
		<polygon class="st5" points="1440,636.9 1291.2,636.9 1290.9,636.5 1210.2,555.9 1142.7,555.9 1129.3,542.5 1050.8,542.5 
			1050.8,539.9 1130.4,539.9 1143.8,553.3 1211.3,553.3 1211.7,553.7 1292.3,634.3 1440,634.3 		"/>
	</g>
	<g>
		<polygon class="st6" points="408.1,411.6 292.7,411.6 292.7,408.9 407,408.9 420.4,395.5 1052.6,395.5 1065.6,408.6 1095.1,408.6 
			1224.7,279.3 1330.6,279.3 1398.7,211.1 1440,211.1 1440,213.7 1399.8,213.7 1331.7,281.9 1225.8,281.9 1096.2,411.2 
			1064.6,411.2 1051.5,398.2 421.5,398.2 		"/>
	</g>
	<g>
		<path class="st7" d="M1259.9,411.1h-2v-2.6h0.9l1.2-1.2l1.9,1.9L1259.9,411.1z M1255.2,411.1h-3.7v-2.6h3.7V411.1z M1248.9,411.1
			h-3.7v-2.6h3.7V411.1z M1242.6,411.1h-3.7v-2.6h3.7V411.1z M1236.3,411.1h-3.7v-2.6h3.7V411.1z M1229.9,411.1h-3.7v-2.6h3.7V411.1
			z M1223.6,411.1h-3.7v-2.6h3.7V411.1z M1217.3,411.1h-3.7v-2.6h3.7V411.1z M1211,411.1h-3.7v-2.6h3.7V411.1z M1204.7,411.1h-3.7
			v-2.6h3.7V411.1z M1198.4,411.1h-3.7v-2.6h3.7V411.1z M1192.1,411.1h-3.7v-2.6h3.7V411.1z M1185.7,411.1h-3.7v-2.6h3.7V411.1z
			 M1179.4,411.1h-3.7v-2.6h3.7V411.1z M1173.1,411.1h-3.7v-2.6h3.7V411.1z M1166.8,411.1h-3.7v-2.6h3.7V411.1z M1160.5,411.1h-3.7
			v-2.6h3.7V411.1z M1154.2,411.1h-3.7v-2.6h3.7V411.1z M1147.9,411.1h-3.7v-2.6h3.7V411.1z M1263.6,407.3l-1.9-1.9l2.6-2.6l1.9,1.9
			L1263.6,407.3z M1268.1,402.8l-1.9-1.9l2.6-2.6l1.9,1.9L1268.1,402.8z M1272.6,398.3l-1.9-1.9l2.6-2.6l1.9,1.9L1272.6,398.3z
			 M1277,393.9l-1.9-1.9l2.6-2.6l1.9,1.9L1277,393.9z M1281.5,389.4l-1.9-1.9l2.6-2.6l1.9,1.9L1281.5,389.4z M1286,384.9l-1.9-1.9
			l2.6-2.6l1.9,1.9L1286,384.9z M1290.4,380.5l-1.9-1.9l2.6-2.6l1.9,1.9L1290.4,380.5z M1294.9,376l-1.9-1.9l2.6-2.6l1.9,1.9
			L1294.9,376z M1299.4,371.5l-1.9-1.9l2.6-2.6l1.9,1.9L1299.4,371.5z M1303.8,367.1l-1.9-1.9l2.6-2.6l1.9,1.9L1303.8,367.1z
			 M1308.3,362.6l-1.9-1.9l2.6-2.6l1.9,1.9L1308.3,362.6z M1312.7,358.2l-1.9-1.9l2.6-2.6l1.9,1.9L1312.7,358.2z M1317.2,353.7
			l-1.9-1.9l2.6-2.6l1.9,1.9L1317.2,353.7z M1321.7,349.2l-1.9-1.9l2.6-2.6l1.9,1.9L1321.7,349.2z M1326.1,344.8l-1.9-1.9l2.6-2.6
			l1.9,1.9L1326.1,344.8z M1330.6,340.3l-1.9-1.9l2.6-2.6l1.9,1.9L1330.6,340.3z M1335.1,335.8l-1.9-1.9l2.1-2.1h1.8v2.6h-0.7
			L1335.1,335.8z M1438.1,334.5h-3.7v-2.6h3.7V334.5z M1431.8,334.5h-3.7v-2.6h3.7V334.5z M1425.5,334.5h-3.7v-2.6h3.7V334.5z
			 M1419.2,334.5h-3.7v-2.6h3.7V334.5z M1412.9,334.5h-3.7v-2.6h3.7V334.5z M1406.5,334.5h-3.7v-2.6h3.7V334.5z M1400.2,334.5h-3.7
			v-2.6h3.7V334.5z M1393.9,334.5h-3.7v-2.6h3.7V334.5z M1387.6,334.5h-3.7v-2.6h3.7V334.5z M1381.3,334.5h-3.7v-2.6h3.7V334.5z
			 M1375,334.5h-3.7v-2.6h3.7V334.5z M1368.7,334.5h-3.7v-2.6h3.7V334.5z M1362.4,334.5h-3.7v-2.6h3.7V334.5z M1356,334.5h-3.7v-2.6
			h3.7V334.5z M1349.7,334.5h-3.7v-2.6h3.7V334.5z M1343.4,334.5h-3.7v-2.6h3.7V334.5z"/>
	</g>
	<g>
		<polygon class="st8" points="1264.7,424 1133.9,424 1107.6,397.8 1106.5,397.8 1067.3,358.6 1034.3,358.6 1008.5,384.5 
			580.2,384.5 567.2,397.5 565.3,395.7 579.1,381.9 1007.4,381.9 1033.3,356 1068.4,356 1107.6,395.2 1108.7,395.2 1134.9,421.4 
			1263.6,421.4 1316.9,368.1 1440,368.1 1440,370.7 1318,370.7 		"/>
	</g>
	<g>
		<polygon class="st9" points="1249.7,569.3 1198,569.3 1198,566.7 1248.6,566.7 1327.5,487.8 1440,487.8 1440,490.4 1328.5,490.4 
					"/>
	</g>
	<g>
		<path class="st10" d="M1257.3,450.7h-0.6v-1.3l-0.9-0.9l2.5-2.6l1.9,1.8L1257.3,450.7z M1254.1,450.7h-3.7v-2.6h3.7V450.7z
			 M1247.7,450.7h-3.7v-2.6h3.7V450.7z M1241.4,450.7h-3.7v-2.6h3.7V450.7z M1235.1,450.7h-3.7v-2.6h3.7V450.7z M1228.8,450.7h-3.7
			v-2.6h3.7V450.7z M1222.5,450.7h-3.7v-2.6h3.7V450.7z M1216.2,450.7h-3.7v-2.6h3.7V450.7z M1209.9,450.7h-3.7v-2.6h3.7V450.7z
			 M1203.6,450.7h-3.7v-2.6h3.7V450.7z M1197.2,450.7h-3.7v-2.6h3.7V450.7z M1190.9,450.7h-3.7v-2.6h3.7V450.7z M1184.6,450.7h-3.7
			v-2.6h3.7V450.7z M1178.3,450.7h-3.7v-2.6h3.7V450.7z M1172,450.7h-3.7v-2.6h3.7V450.7z M1165.7,450.7h-3.7v-2.6h3.7V450.7z
			 M1159.4,450.7h-2.7l-1.5-1.5l1.9-1.9l0.7,0.7h1.6V450.7z M1153.3,447.4l-2.6-2.6l1.9-1.9l2.6,2.6L1153.3,447.4z M1262,445.8
			l-1.9-1.8l2.6-2.6l1.9,1.8L1262,445.8z M1148.9,442.9l-2.6-2.6l1.9-1.9l2.6,2.6L1148.9,442.9z M1266.4,441.2l-1.9-1.8l2.6-2.6
			l1.9,1.8L1266.4,441.2z M1144.4,438.5l-0.6-0.6h-1.8v-2.6h2.9l1.3,1.3L1144.4,438.5z M1139.4,437.9h-3.7v-2.6h3.7V437.9z
			 M1133.1,437.9h-3.7v-2.6h3.7V437.9z M1270.8,436.7l-1.9-1.8l2.6-2.6l1.9,1.8L1270.8,436.7z M1126.3,436.4l-2.6-2.6l1.9-1.9
			l2.6,2.6L1126.3,436.4z M1275.2,432.2l-1.9-1.8l2.6-2.6l1.9,1.8L1275.2,432.2z M1121.8,432l-2.6-2.6l1.9-1.9l2.6,2.6L1121.8,432z
			 M1279.6,427.6l-1.9-1.8l2.6-2.6l1.9,1.8L1279.6,427.6z M1117.4,427.5l-2.6-2.6l1.9-1.9l2.6,2.6L1117.4,427.5z M1113.5,424.2h-3.7
			v-2.6h3.7V424.2z M1107.2,424.2h-3.7v-2.6h3.7V424.2z M1100.9,424.2h-3.7v-2.6h3.7V424.2z M1094.6,424.2h-3.7v-2.6h3.7V424.2z
			 M1088.3,424.2h-3.7v-2.6h3.7V424.2z M1082,424.2h-3.7v-2.6h3.7V424.2z M1075.7,424.2h-3.7v-2.6h3.7V424.2z M1069.3,424.2h-3.7
			v-2.6h3.7V424.2z M1063,424.2h-3.7v-2.6h3.7V424.2z M1056.7,424.2h-3.7v-2.6h3.7V424.2z M1050.4,424.2h-3.7v-2.6h3.7V424.2z
			 M1044.1,424.2h-3.7v-2.6h3.7V424.2z M1284,423.1l-1.9-1.8l2.6-2.6l1.9,1.8L1284,423.1z M1037.5,422.2l-2.6-2.6l1.9-1.9l2.6,2.6
			L1037.5,422.2z M1288.4,418.6l-1.9-1.8l2.6-2.6l1.9,1.8L1288.4,418.6z M1033,417.8l-2.6-2.6l1.9-1.9l2.6,2.6L1033,417.8z
			 M1292.7,414l-1.9-1.8l2.6-2.6l1.9,1.8L1292.7,414z M1028.6,413.3l-2.6-2.6l1.9-1.9l2.6,2.6L1028.6,413.3z M1395.1,411.1h-3.7
			v-2.6h3.7V411.1z M1388.7,411.1h-3.7v-2.6h3.7V411.1z M1382.4,411.1h-3.7v-2.6h3.7V411.1z M1376.1,411.1h-3.7v-2.6h3.7V411.1z
			 M1369.8,411.1h-3.7v-2.6h3.7V411.1z M1363.5,411.1h-3.7v-2.6h3.7V411.1z M1357.2,411.1h-3.7v-2.6h3.7V411.1z M1350.9,411.1h-3.7
			v-2.6h3.7V411.1z M1344.6,411.1h-3.7v-2.6h3.7V411.1z M1338.2,411.1h-3.7v-2.6h3.7V411.1z M1331.9,411.1h-3.7v-2.6h3.7V411.1z
			 M1325.6,411.1h-3.7v-2.6h3.7V411.1z M1319.3,411.1h-3.7v-2.6h3.7V411.1z M1313,411.1h-3.7v-2.6h3.7V411.1z M1306.7,411.1h-3.7
			v-2.6h3.7V411.1z M1300.4,411.1h-3.7v-2.6h3.7V411.1z M1398.3,410l-1.9-1.9l2.6-2.6l1.9,1.9L1398.3,410z M1024.1,408.8l-2.6-2.6
			l1.9-1.9l2.6,2.6L1024.1,408.8z M1402.8,405.5l-1.9-1.9l2.6-2.6l1.9,1.9L1402.8,405.5z M1019.7,404.4l-2.6-2.6l1.9-1.9l2.6,2.6
			L1019.7,404.4z M1407.3,401.1l-1.9-1.9l2.6-2.6l1.9,1.9L1407.3,401.1z M1015.2,399.9l-2.2-2.2l1.9-1.9l2.2,2.2L1015.2,399.9z
			 M1440,397.6h-3.7V395h3.7V397.6z M1433.7,397.6h-3.7V395h3.7V397.6z M1427.4,397.6h-3.7V395h3.7V397.6z M1421.1,397.6h-3.7V395
			h3.7V397.6z M1414.7,397.6h-3.7V395h3.7V397.6z"/>
	</g>
	<g>
		<polygon class="st11" points="1440,463.5 1113.4,463.5 1086.9,437 769.4,437 756.4,424 496.6,424 483.2,437.4 317.7,437.4 
			317.7,434.7 482.1,434.7 495.5,421.3 757.5,421.3 770.5,434.4 1088,434.4 1114.5,460.9 1440,460.9 		"/>
	</g>
	<g>
		<polygon class="st12" points="1206.9,397.8 1107.4,397.8 1107.4,395.2 1205.8,395.2 1242.5,358.5 1270.6,358.5 1349.2,279.8 
			1440,279.8 1440,282.5 1350.3,282.5 1271.7,361.1 1243.6,361.1 		"/>
	</g>
	<g>
		<polygon class="st3" points="1155.9,333 1047.6,333 1047.6,330.3 1154.8,330.3 1288.1,197 1440,197 1440,199.7 1289.2,199.7 		"/>
	</g>
	<g>
		<g>
			<polygon class="st13" points="1255.5,582.7 1188.5,582.7 1134.8,529.1 1096.3,529.1 1056.1,488.8 977.4,488.8 977.4,486.2 
				1057.2,486.2 1097.4,526.4 1135.9,526.4 1189.6,580.1 1254.4,580.1 1332.9,501.7 1440,501.7 1440,504.3 1333.9,504.3 			"/>
		</g>
	</g>
	<g>
		<circle class="st14" cx="1014" cy="397" r="3.9"/>
		<path class="st15" d="M1014,402.3c-2.9,0-5.2-2.3-5.2-5.2c0-2.9,2.3-5.2,5.2-5.2c2.9,0,5.2,2.3,5.2,5.2
			C1019.2,399.9,1016.9,402.3,1014,402.3z M1014,394.4c-1.4,0-2.6,1.2-2.6,2.6c0,1.4,1.2,2.6,2.6,2.6c1.4,0,2.6-1.2,2.6-2.6
			C1016.6,395.6,1015.4,394.4,1014,394.4z"/>
	</g>
	<g>
		<circle class="st14" cx="1053.2" cy="357" r="3.9"/>
		<path class="st15" d="M1053.2,362.2c-2.9,0-5.2-2.3-5.2-5.2c0-2.9,2.3-5.2,5.2-5.2s5.2,2.3,5.2,5.2
			C1058.5,359.9,1056.1,362.2,1053.2,362.2z M1053.2,354.4c-1.4,0-2.6,1.2-2.6,2.6c0,1.4,1.2,2.6,2.6,2.6c1.4,0,2.6-1.2,2.6-2.6
			C1055.8,355.6,1054.7,354.4,1053.2,354.4z"/>
	</g>
	<g>
		<circle class="st14" cx="1144.2" cy="437.5" r="3.9"/>
		<path class="st15" d="M1144.2,442.7c-2.9,0-5.2-2.3-5.2-5.2c0-2.9,2.3-5.2,5.2-5.2c2.9,0,5.2,2.3,5.2,5.2
			C1149.4,440.4,1147,442.7,1144.2,442.7z M1144.2,434.9c-1.4,0-2.6,1.2-2.6,2.6c0,1.4,1.2,2.6,2.6,2.6c1.4,0,2.6-1.2,2.6-2.6
			C1146.8,436.1,1145.6,434.9,1144.2,434.9z"/>
	</g>
	<g>
		<circle class="st14" cx="1141.5" cy="364.3" r="3.9"/>
		<path class="st15" d="M1141.5,369.5c-2.9,0-5.2-2.3-5.2-5.2c0-2.9,2.3-5.2,5.2-5.2c2.9,0,5.2,2.3,5.2,5.2
			C1146.7,367.1,1144.4,369.5,1141.5,369.5z M1141.5,361.7c-1.4,0-2.6,1.2-2.6,2.6c0,1.4,1.2,2.6,2.6,2.6c1.4,0,2.6-1.2,2.6-2.6
			C1144.1,362.8,1142.9,361.7,1141.5,361.7z"/>
	</g>
	<g>
		<circle class="st14" cx="1046.5" cy="331.6" r="3.9"/>
		<path class="st15" d="M1046.5,336.9c-2.9,0-5.2-2.3-5.2-5.2c0-2.9,2.3-5.2,5.2-5.2s5.2,2.3,5.2,5.2
			C1051.8,334.5,1049.4,336.9,1046.5,336.9z M1046.5,329c-1.4,0-2.6,1.2-2.6,2.6c0,1.4,1.2,2.6,2.6,2.6c1.4,0,2.6-1.2,2.6-2.6
			C1049.1,330.2,1048,329,1046.5,329z"/>
	</g>
	<g>
		<circle class="st14" cx="1144.2" cy="409.7" r="3.9"/>
		<path class="st15" d="M1144.2,415c-2.9,0-5.2-2.3-5.2-5.2s2.3-5.2,5.2-5.2c2.9,0,5.2,2.3,5.2,5.2S1147,415,1144.2,415z
			 M1144.2,407.1c-1.4,0-2.6,1.2-2.6,2.6s1.2,2.6,2.6,2.6c1.4,0,2.6-1.2,2.6-2.6S1145.6,407.1,1144.2,407.1z"/>
	</g>
	<g>
		<circle class="st14" cx="1218" cy="385.1" r="3.9"/>
		<path class="st15" d="M1218,390.3c-2.9,0-5.2-2.3-5.2-5.2s2.3-5.2,5.2-5.2c2.9,0,5.2,2.3,5.2,5.2S1220.9,390.3,1218,390.3z
			 M1218,382.5c-1.4,0-2.6,1.2-2.6,2.6s1.2,2.6,2.6,2.6c1.4,0,2.6-1.2,2.6-2.6S1219.4,382.5,1218,382.5z"/>
	</g>
	<g>
		<circle class="st14" cx="1107.4" cy="396.5" r="3.9"/>
		<path class="st15" d="M1107.4,401.7c-2.9,0-5.2-2.3-5.2-5.2c0-2.9,2.3-5.2,5.2-5.2c2.9,0,5.2,2.3,5.2,5.2
			C1112.6,399.4,1110.3,401.7,1107.4,401.7z M1107.4,393.9c-1.4,0-2.6,1.2-2.6,2.6c0,1.4,1.2,2.6,2.6,2.6c1.4,0,2.6-1.2,2.6-2.6
			C1110,395.1,1108.8,393.9,1107.4,393.9z"/>
	</g>
	<g>
		<circle class="st14" cx="1229.5" cy="541" r="3.9"/>
		<path class="st15" d="M1229.5,546.3c-2.9,0-5.2-2.3-5.2-5.2s2.3-5.2,5.2-5.2s5.2,2.3,5.2,5.2S1232.4,546.3,1229.5,546.3z
			 M1229.5,538.4c-1.4,0-2.6,1.2-2.6,2.6s1.2,2.6,2.6,2.6c1.4,0,2.6-1.2,2.6-2.6S1231,538.4,1229.5,538.4z"/>
	</g>
	<g>
		<circle class="st14" cx="1198" cy="568" r="3.9"/>
		<path class="st15" d="M1198,573.3c-2.9,0-5.2-2.3-5.2-5.2c0-2.9,2.3-5.2,5.2-5.2s5.2,2.3,5.2,5.2
			C1203.2,570.9,1200.8,573.3,1198,573.3z M1198,565.4c-1.4,0-2.6,1.2-2.6,2.6s1.2,2.6,2.6,2.6c1.4,0,2.6-1.2,2.6-2.6
			S1199.4,565.4,1198,565.4z"/>
	</g>
	<g>
		<circle class="st14" cx="1050.8" cy="541.2" r="3.9"/>
		<path class="st15" d="M1050.8,546.4c-2.9,0-5.2-2.3-5.2-5.2c0-2.9,2.3-5.2,5.2-5.2s5.2,2.3,5.2,5.2
			C1056,544.1,1053.6,546.4,1050.8,546.4z M1050.8,538.6c-1.4,0-2.6,1.2-2.6,2.6c0,1.4,1.2,2.6,2.6,2.6c1.4,0,2.6-1.2,2.6-2.6
			C1053.4,539.8,1052.2,538.6,1050.8,538.6z"/>
	</g>
	<g>
		<circle class="st14" cx="672.5" cy="422.4" r="3.9"/>
		<path class="st15" d="M672.5,427.7c-2.9,0-5.2-2.3-5.2-5.2s2.3-5.2,5.2-5.2s5.2,2.3,5.2,5.2S675.4,427.7,672.5,427.7z
			 M672.5,419.8c-1.4,0-2.6,1.2-2.6,2.6s1.2,2.6,2.6,2.6s2.6-1.2,2.6-2.6S673.9,419.8,672.5,419.8z"/>
	</g>
	<g>
		<circle class="st14" cx="977.6" cy="487.4" r="3.9"/>
		<path class="st15" d="M977.6,492.6c-2.9,0-5.2-2.3-5.2-5.2c0-2.9,2.3-5.2,5.2-5.2s5.2,2.3,5.2,5.2
			C982.8,490.3,980.5,492.6,977.6,492.6z M977.6,484.8c-1.4,0-2.6,1.2-2.6,2.6c0,1.4,1.2,2.6,2.6,2.6c1.4,0,2.6-1.2,2.6-2.6
			C980.2,486,979,484.8,977.6,484.8z"/>
	</g>
	<g>
		<circle class="st14" cx="1229.5" cy="515.5" r="3.9"/>
		<path class="st15" d="M1229.5,520.8c-2.9,0-5.2-2.3-5.2-5.2s2.3-5.2,5.2-5.2s5.2,2.3,5.2,5.2S1232.4,520.8,1229.5,520.8z
			 M1229.5,512.9c-1.4,0-2.6,1.2-2.6,2.6s1.2,2.6,2.6,2.6c1.4,0,2.6-1.2,2.6-2.6S1231,512.9,1229.5,512.9z"/>
	</g>
	<circle class="st14" cx="1350.5" cy="280.9" r="3.9"/>
	<path class="st15" d="M1350.5,286.1c-2.9,0-5.2-2.3-5.2-5.2c0-2.9,2.3-5.2,5.2-5.2s5.2,2.3,5.2,5.2
		C1355.7,283.8,1353.4,286.1,1350.5,286.1z M1350.5,278.3c-1.4,0-2.6,1.2-2.6,2.6c0,1.4,1.2,2.6,2.6,2.6c1.4,0,2.6-1.2,2.6-2.6
		C1353.1,279.5,1351.9,278.3,1350.5,278.3z"/>
	<g>
		<circle class="st14" cx="1374.1" cy="369.9" r="3.9"/>
		<path class="st15" d="M1374.1,375.1c-2.9,0-5.2-2.3-5.2-5.2c0-2.9,2.3-5.2,5.2-5.2c2.9,0,5.2,2.3,5.2,5.2
			C1379.3,372.7,1377,375.1,1374.1,375.1z M1374.1,367.3c-1.4,0-2.6,1.2-2.6,2.6c0,1.4,1.2,2.6,2.6,2.6c1.4,0,2.6-1.2,2.6-2.6
			C1376.7,368.4,1375.6,367.3,1374.1,367.3z"/>
	</g>
	<g>
		<circle class="st14" cx="1331.1" cy="280.6" r="3.9"/>
		<path class="st15" d="M1331.1,285.8c-2.9,0-5.2-2.3-5.2-5.2c0-2.9,2.3-5.2,5.2-5.2c2.9,0,5.2,2.3,5.2,5.2
			C1336.3,283.5,1334,285.8,1331.1,285.8z M1331.1,278c-1.4,0-2.6,1.2-2.6,2.6c0,1.4,1.2,2.6,2.6,2.6c1.4,0,2.6-1.2,2.6-2.6
			C1333.7,279.1,1332.5,278,1331.1,278z"/>
	</g>
	<g>
		<circle class="st14" cx="1302" cy="515.6" r="3.9"/>
		<path class="st15" d="M1302,520.8c-2.9,0-5.2-2.3-5.2-5.2s2.3-5.2,5.2-5.2s5.2,2.3,5.2,5.2S1304.9,520.8,1302,520.8z M1302,513
			c-1.4,0-2.6,1.2-2.6,2.6s1.2,2.6,2.6,2.6c1.4,0,2.6-1.2,2.6-2.6S1303.4,513,1302,513z"/>
	</g>
	<g>
		<circle class="st14" cx="1315.9" cy="462.3" r="3.9"/>
		<path class="st15" d="M1315.9,467.5c-2.9,0-5.2-2.3-5.2-5.2c0-2.9,2.3-5.2,5.2-5.2c2.9,0,5.2,2.3,5.2,5.2
			C1321.1,465.2,1318.8,467.5,1315.9,467.5z M1315.9,459.7c-1.4,0-2.6,1.2-2.6,2.6c0,1.4,1.2,2.6,2.6,2.6c1.4,0,2.6-1.2,2.6-2.6
			C1318.5,460.9,1317.3,459.7,1315.9,459.7z"/>
	</g>
	<g>
		<circle class="st14" cx="1398.1" cy="295" r="3.9"/>
		<path class="st15" d="M1398.1,300.3c-2.9,0-5.2-2.3-5.2-5.2s2.3-5.2,5.2-5.2s5.2,2.3,5.2,5.2S1400.9,300.3,1398.1,300.3z
			 M1398.1,292.4c-1.4,0-2.6,1.2-2.6,2.6s1.2,2.6,2.6,2.6c1.4,0,2.6-1.2,2.6-2.6S1399.5,292.4,1398.1,292.4z"/>
	</g>
	<g>
		<circle class="st14" cx="1291.8" cy="635.6" r="3.9"/>
		<path class="st15" d="M1291.8,640.8c-2.9,0-5.2-2.3-5.2-5.2s2.3-5.2,5.2-5.2s5.2,2.3,5.2,5.2S1294.7,640.8,1291.8,640.8z
			 M1291.8,633c-1.4,0-2.6,1.2-2.6,2.6c0,1.4,1.2,2.6,2.6,2.6c1.4,0,2.6-1.2,2.6-2.6C1294.4,634.2,1293.2,633,1291.8,633z"/>
	</g>
	<g>
		<circle class="st14" cx="1008.7" cy="462.6" r="3.9"/>
		<path class="st15" d="M1008.7,467.8c-2.9,0-5.2-2.3-5.2-5.2c0-2.9,2.3-5.2,5.2-5.2c2.9,0,5.2,2.3,5.2,5.2
			C1013.9,465.5,1011.6,467.8,1008.7,467.8z M1008.7,460c-1.4,0-2.6,1.2-2.6,2.6c0,1.4,1.2,2.6,2.6,2.6c1.4,0,2.6-1.2,2.6-2.6
			C1011.3,461.1,1010.1,460,1008.7,460z"/>
	</g>
	<g>
		<circle class="st14" cx="502.4" cy="436" r="3.9"/>
		<path class="st15" d="M502.4,441.2c-2.9,0-5.2-2.3-5.2-5.2s2.3-5.2,5.2-5.2c2.9,0,5.2,2.3,5.2,5.2S505.3,441.2,502.4,441.2z
			 M502.4,433.4c-1.4,0-2.6,1.2-2.6,2.6c0,1.4,1.2,2.6,2.6,2.6c1.4,0,2.6-1.2,2.6-2.6C505,434.5,503.9,433.4,502.4,433.4z"/>
	</g>
	<g>
		<circle class="st14" cx="566.1" cy="396.6" r="3.9"/>
		<path class="st15" d="M566.1,401.8c-2.9,0-5.2-2.3-5.2-5.2c0-2.9,2.3-5.2,5.2-5.2c2.9,0,5.2,2.3,5.2,5.2
			C571.4,399.5,569,401.8,566.1,401.8z M566.1,394c-1.4,0-2.6,1.2-2.6,2.6c0,1.4,1.2,2.6,2.6,2.6c1.4,0,2.6-1.2,2.6-2.6
			C568.7,395.1,567.6,394,566.1,394z"/>
	</g>
	<g>
		<circle class="st14" cx="292.7" cy="410.3" r="3.9"/>
		<path class="st15" d="M292.7,415.5c-2.9,0-5.2-2.3-5.2-5.2c0-2.9,2.3-5.2,5.2-5.2c2.9,0,5.2,2.3,5.2,5.2
			C298,413.1,295.6,415.5,292.7,415.5z M292.7,407.7c-1.4,0-2.6,1.2-2.6,2.6c0,1.4,1.2,2.6,2.6,2.6c1.4,0,2.6-1.2,2.6-2.6
			C295.3,408.8,294.2,407.7,292.7,407.7z"/>
	</g>
</g>
</svg>
