<svg xmlns="http://www.w3.org/2000/svg" viewBox="0 0 1440.033 1264.1">
  <defs>
    <style>
      .cls-1, .cls-3 {
        fill: #209d70;
      }

      .cls-1, .cls-2, .cls-4, .cls-5 {
        fill-rule: evenodd;
      }

      .cls-2, .cls-4, .cls-5 {
        fill: none;
        stroke-miterlimit: 22.926;
      }

      .cls-2, .cls-3, .cls-4 {
        stroke: #29af7f;
      }

      .cls-2, .cls-3, .cls-4, .cls-5 {
        stroke-width: 10px;
      }

      .cls-3 {
        stroke-miterlimit: 10;
      }

      .cls-4, .cls-5 {
        stroke-dasharray: 14 10;
      }

      .cls-5 {
        stroke: #28ac7d;
      }
    </style>
  </defs>
  <g id="Group_79" data-name="Group 79" transform="translate(0 699)">
    <path id="BG" class="cls-1" d="M226.7-376,366.9-235.8H527.1l59.2,59.1h575l108-111.7H1440V888.1H0V-376Z" transform="translate(0 -323)"/>
    <path id="Path_346" data-name="Path 346" class="cls-2" d="M5,765.107V557.616a11.117,11.117,0,0,1,3.3-7.9l95.95-95.95a11.117,11.117,0,0,0,3.3-7.9V17.7" transform="translate(1071.06 -200.007)"/>
    <circle id="Ellipse_13" data-name="Ellipse 13" class="cls-3" cx="12.194" cy="12.194" r="12.194" transform="translate(1165.813 -195)"/>
    <path id="grafismo_03" data-name="grafismo 03" class="cls-4" d="M1440-181.7l-134.2-.3a11.117,11.117,0,0,0-7.9,3.3L1005.179,124.1a11.117,11.117,0,0,1-7.9,3.3H735.961a11.117,11.117,0,0,0-7.9,3.3L607.593,251.2a11.116,11.116,0,0,1-7.9,3.3H0" transform="translate(0 122)"/>
    <path id="grafismo_02" data-name="grafismo 02" class="cls-5" d="M1440-118.7,935.8-122a11.117,11.117,0,0,0-7.9,3.3L695.179,124.1a11.117,11.117,0,0,1-7.9,3.3H195.961a11.117,11.117,0,0,0-7.9,3.3l-60.471,60.5a11.117,11.117,0,0,1-7.9,3.3H0" transform="translate(0 -309)"/>
  </g>
</svg>
