<svg xmlns="http://www.w3.org/2000/svg" viewBox="0 0 1440.345 2581">
  <defs>
    <style>
      .cls-1, .cls-3 {
        fill: #e9f2f5;
      }

      .cls-2, .cls-4, .cls-5, .cls-6 {
        fill: none;
        stroke-miterlimit: 22.926;
        fill-rule: evenodd;
      }

      .cls-2 {
        stroke: #f47c20;
      }

      .cls-2, .cls-3, .cls-4, .cls-5, .cls-6 {
        stroke-width: 10px;
      }

      .cls-3 {
        stroke: #000;
        stroke-miterlimit: 10;
      }

      .cls-4 {
        stroke: #057fd9;
      }

      .cls-5 {
        stroke: #ee3279;
      }

      .cls-5, .cls-6 {
        stroke-dasharray: 14 10;
      }

      .cls-6 {
        stroke: #5fbb46;
      }
    </style>
  </defs>
  <g id="BG" transform="translate(-415 -263)">
    <path id="BG-2" data-name="BG" class="cls-1" d="M0,0H1440V2581H0Z" transform="translate(415 263)"/>
    <g id="grafismo_04" data-name="grafismo 04" transform="translate(1842.34 453.868) rotate(180)">
      <path id="Path_346" data-name="Path 346" class="cls-2" d="M127.546,190.875V-62.3" transform="translate(0 -0.007)"/>
      <circle id="Ellipse_13" data-name="Ellipse 13" class="cls-3" cx="12.194" cy="12.194" r="12.194" transform="translate(115.753 -75)"/>
    </g>
    <g id="grafismo_03" data-name="grafismo 03" transform="translate(1536.447 462)">
      <path id="Path_346-2" data-name="Path 346" class="cls-4" d="M127.546-62.3V195.875a11.117,11.117,0,0,1-3.3,7.9L-41.7,369.72a11.117,11.117,0,0,0-3.3,7.9s-.764,539.862,0,540.718S89.993,1052.326,89.993,1052.326H318.856" transform="translate(0 -0.007)"/>
      <circle id="Ellipse_13-2" data-name="Ellipse 13" class="cls-3" cx="12.194" cy="12.194" r="12.194" transform="translate(115.753 -75)"/>
      <circle id="Ellipse_15" data-name="Ellipse 15" class="cls-3" cx="12.194" cy="12.194" r="12.194" transform="translate(77.753 1040)"/>
    </g>
    <g id="grafismo_02" data-name="grafismo 02" transform="translate(0 7)">
      <path id="grafismo_02-2" data-name="grafismo 02" class="cls-5" d="M1551,127.6H604.985a11.151,11.151,0,0,0-7.913,3.3l-39.366,39.3a11.151,11.151,0,0,1-7.913,3.3h-333.7a11.151,11.151,0,0,1-7.913-3.3l-39.366-39.3a11.151,11.151,0,0,0-7.913-3.3H111" transform="translate(1966 1384.5) rotate(180)"/>
      <circle id="Ellipse_16" data-name="Ellipse 16" class="cls-3" cx="12.194" cy="12.194" r="12.194" transform="translate(1083.327 1243.74) rotate(90)"/>
    </g>
    <g id="grafismo_01" data-name="grafismo 01" transform="translate(111)">
      <path id="grafismo_01-2" data-name="grafismo 01" class="cls-6" d="M1693.655-348.7l-161.732-.3a11.1,11.1,0,0,0-7.89,3.3L1084.59,114.1a11.1,11.1,0,0,1-7.89,3.3H555.654a11.1,11.1,0,0,0-7.89,3.3L417.409,251.2a11.1,11.1,0,0,1-7.89,3.3H253.655" transform="translate(1998 952.5) rotate(180)"/>
      <circle id="Ellipse_14" data-name="Ellipse 14" class="cls-3" cx="12.194" cy="12.194" r="12.194" transform="translate(1394.587 847.868) rotate(180)"/>
    </g>
  </g>
</svg>
